<?xml version="1.0" encoding="utf-8"?>
<svg xmlns="http://www.w3.org/2000/svg" viewBox="0 0 1024 1024" xmlns:bx="https://boxy-svg.com" style="">
  <defs>
    <bx:grid x="0" y="0" width="64" height="64"/>
    <linearGradient id="color-0" gradientUnits="userSpaceOnUse" bx:pinned="true">
      <title>StageCol</title>
      <stop style="stop-color: rgb(0, 165, 255);"/>
    </linearGradient>
    <linearGradient id="color-1" bx:pinned="true" gradientUnits="userSpaceOnUse">
      <title>LocalCol</title>
      <stop style="stop-color: rgb(255, 166, 0);"/>
    </linearGradient>
    <linearGradient id="color-2" bx:pinned="true" gradientUnits="userSpaceOnUse" gradientTransform="matrix(8, 0, 0, 8, 0, 0)">
      <title>LocalStageCol</title>
      <stop style="stop-color: rgb(168, 0, 255);"/>
    </linearGradient>
    <bx:export>
      <bx:file format="png" path="coarse_location.png">
        <bx:variant scale="0.5" suffix="@512px"/>
        <bx:variant scale="0.25" suffix="@256px"/>
        <bx:variant scale="0.125" suffix="@128px"/>
      </bx:file>
    </bx:export>
    <linearGradient id="color-3" bx:pinned="true" gradientUnits="userSpaceOnUse" gradientTransform="matrix(1, 0, 0, 1, -14.017997, -10.513992)">
      <title>Background</title>
      <stop style="stop-color: rgb(0, 216, 33);"/>
    </linearGradient>
    <linearGradient id="color-4" bx:pinned="true" gradientUnits="userSpaceOnUse" gradientTransform="matrix(1.53448, 0, 0, -1.41294, 1050.154, 802.011)">
      <title>MiddleGrey</title>
      <stop style="stop-color: rgb(128, 128, 128);"/>
    </linearGradient>
    <linearGradient id="color-6" gradientUnits="userSpaceOnUse" bx:pinned="true" gradientTransform="matrix(1, 0, 0, 1, 0, -0.000058)">
      <title>White</title>
      <stop style="stop-color: rgb(255, 255, 255);"/>
    </linearGradient>
    <linearGradient id="color-7" bx:pinned="true" gradientUnits="userSpaceOnUse" gradientTransform="matrix(1, 0, 0, 1, 0, 0)">
      <title>LightGrey</title>
      <stop style="stop-color: rgb(63, 63, 63);"/>
    </linearGradient>
    <linearGradient id="color-8" bx:pinned="true" gradientUnits="userSpaceOnUse">
      <title>Black</title>
      <stop style="stop-color: rgb(0, 0, 0);"/>
    </linearGradient>
    <linearGradient id="color-5" bx:pinned="true" gradientUnits="userSpaceOnUse" gradientTransform="matrix(1.241989, 0, 0, 0.936756, -151.729447, 22.852845)">
      <title>OthergGrey</title>
      <stop style="stop-color: rgb(174, 174, 174);"/>
    </linearGradient>
  </defs>
  <rect style="stroke: rgb(0, 0, 0); fill: url(&quot;#color-8&quot;);" x="-32.353" y="-19.519" width="1092.41" height="1075.43" rx="0" ry="0">
    <title>ActualBG</title>
  </rect>
  <g style="visibility: hidden;">
    <title>Sources</title>
    <rect style="fill: url(&quot;#color-3&quot;); transform-origin: 0px 0px;" width="1024" height="1024" rx="48" ry="48" y="-0.004">
      <title>RoundedBackground</title>
    </rect>
    <rect style="fill: url(&quot;#color-3&quot;); transform-origin: 0px 0px;" x="0" y="0" width="1024" height="1024" rx="0" ry="0">
      <title>ContrastBackground</title>
    </rect>
    <g style="pointer-events: none; visibility: hidden;" transform="matrix(6.400423, 0, 0, 6.400423, 517.455033, 40.877614)">
      <title>LayoutBits</title>
      <path style="fill: rgb(216, 216, 216); stroke: rgb(0, 0, 0);" d="M 63.658 29.588 C 81.426 30.144 79.23 41.274 79.23 49.06 C 79.23 64.633 63.512 88.116 63.658 87.991 C 63.842 88.543 48.086 64.633 48.086 49.06 C 48.086 41.274 45.89 29.033 63.658 29.588 Z M 73.595 49.06 C 73.595 54.548 69.146 58.997 63.658 58.997 C 58.17 58.997 53.721 54.548 53.721 49.06 C 53.721 43.572 58.17 39.123 63.658 39.123 C 69.146 39.123 73.595 43.572 73.595 49.06 Z">
        <title>Location</title>
      </path>
      <path style="fill: rgb(216, 216, 216); stroke: rgb(0, 0, 0);" d="M 38.29 67.778 C 49.308 68.123 47.947 75.024 47.947 79.853 C 47.947 89.509 38.2 104.071 38.29 103.994 C 38.404 104.336 28.634 89.509 28.634 79.853 C 28.634 75.024 27.272 67.434 38.29 67.778 Z M 44.452 79.853 C 44.452 83.256 41.693 86.014 38.29 86.014 C 34.887 86.014 32.128 83.256 32.128 79.853 C 32.128 76.449 34.887 73.691 38.29 73.691 C 41.693 73.691 44.452 76.449 44.452 79.853 Z">
        <title>LocationSmall</title>
      </path>
      <path style="fill: rgb(216, 216, 216); stroke: rgb(0, 0, 0);" d="M 63.827 16.031 C 93.892 16.973 90.175 35.805 90.175 48.981 C 90.175 75.331 63.58 115.066 63.827 114.854 C 64.138 115.789 37.477 75.331 37.477 48.981 C 37.477 35.805 33.762 15.093 63.827 16.031 Z M 80.641 48.981 C 80.641 58.266 73.113 65.794 63.827 65.794 C 54.541 65.794 47.012 58.266 47.012 48.981 C 47.012 39.694 54.541 32.166 63.827 32.166 C 73.113 32.166 80.641 39.694 80.641 48.981 Z">
        <title>LocationBigPin</title>
      </path>
      <path style="fill: rgb(53, 216, 0);" d="M 7.5 0 H 1016.5 A 7.5 7.5 0 0 1 1024 7.5 V 1016.5 A 7.5 7.5 0 0 1 1016.5 1024 H 7.25 A 7.25 7.25 0 0 1 0 1016.75 V 7.5 A 7.5 7.5 0 0 1 7.5 0 Z" bx:shape="rect 0 0 1024 1024 7.5 7.5 7.5 7.25 1@3e8bf5e9">
        <title>RoundedBackground</title>
      </path>
    </g>
    <path style="fill: rgb(0, 0, 0); stroke: url(&quot;#color-4&quot;); stroke-width: 12px; visibility: hidden;" d="M 137.691 199.152 C 168.793 204.511 180.49 264.402 180.011 305.738 C 179.576 343.773 167.919 399.226 143.509 407.182 C 115.005 416.472 82.38 369.712 80.75 315.99 C 78.898 254.831 92.812 191.419 137.691 199.152 Z">
      <title>Mirror</title>
    </path>
  </g>
  <g style="visibility: hidden;" transform="matrix(1, 0, 0, 1, -7.0091, -5.25688)">
    <title>FINE_LOCATION</title>
    <rect style="transform-origin: 7.009px 5.257px; fill: url(&quot;#color-3&quot;);" x="7.009" width="1024" height="1024" rx="48" ry="48" y="5.257">
      <title>RoundedBackground</title>
    </rect>
    <path d="M 983.009 5.257 C 1009.52 5.257 1031.01 26.747 1031.01 53.257 L 1031.01 502.949 C 945.638 522.208 861.297 541.258 789.913 557.427 C 751.738 566.074 734.412 570.426 720.465 567.328 C 706.808 564.295 696.445 554.22 672.337 529.919 C 502.034 358.259 243.237 101.553 146.119 5.257 Z M 55.009 1029.26 C 28.499 1029.26 7.009 1007.77 7.009 981.257 L 7.009 938.683 C 137.352 906.32 341.699 855.68 477.109 822.622 C 570.732 799.285 567.883 798.242 616.887 859.014 C 659.046 910.245 709.183 970.56 758.171 1029.26 Z M 919.339 774.155 C 904.688 759.51 893.933 748.802 887.133 740.554 C 880.65 732.691 879.246 730.431 879.858 728.063 C 880.46 725.738 882.608 724.631 892.046 721.213 C 901.984 717.615 916.61 713.953 936.703 708.94 C 964.398 702.03 997.361 693.842 1031.01 685.501 L 1031.01 885.671 C 991.557 846.298 951.592 806.395 919.339 774.155 Z M 149.574 294.115 C 148.514 311.359 149.849 325.396 149.849 339.705 C 149.849 391.966 176.231 458.129 201.917 509.652 C 214.786 535.465 227.677 558.07 237.192 573.852 C 241.968 581.774 245.963 588.092 248.692 592.261 C 250.073 594.372 251.199 596.034 251.935 597.074 C 252.333 597.635 252.766 598.216 253.056 598.567 C 253.307 598.87 254.181 599.788 254.956 600.304 C 255.514 600.674 257.397 601.505 258.708 601.62 C 259.825 601.718 262.451 601.184 263.658 600.429 C 264.645 599.81 265.915 598.263 266.573 597.121 C 266.484 597.298 266.396 597.459 266.375 597.496 C 266.374 597.498 266.383 597.483 266.47 597.343 C 266.664 597.031 266.974 596.542 267.411 595.853 C 268.286 594.474 269.612 592.388 271.306 589.686 C 274.68 584.301 279.56 576.393 285.321 566.617 C 296.811 547.121 308.232 526.59 320.809 500.869 C 356.774 544.253 384.325 577.447 399.466 595.58 C 409.919 608.097 417.372 617.093 421.606 624.064 C 425.481 630.443 425.934 631.095 424.616 633.281 C 420.574 639.987 402.63 644.201 359.904 654.553 C 315.736 665.255 127.392 706.623 7.009 732.96 L 7.009 121.831 C 37.511 158.702 87.443 219.053 149.574 294.115 Z M 370.728 186.057 L 384.628 191.957 C 393.161 183.757 399.411 176.29 403.378 169.557 C 407.345 162.824 409.328 155.99 409.328 149.057 C 409.328 142.124 407.395 136.524 403.528 132.257 C 399.661 127.99 394.511 125.857 388.078 125.857 C 381.645 125.857 376.128 128.024 371.528 132.357 C 366.928 136.69 364.628 141.824 364.628 147.757 C 364.628 153.69 366.245 158.457 369.478 162.057 C 372.711 165.657 376.761 167.457 381.628 167.457 C 386.495 167.457 390.928 165.857 394.928 162.657 C 391.395 170.057 383.328 177.857 370.728 186.057 Z M 379.328 154.007 C 377.595 151.907 376.728 149.34 376.728 146.307 C 376.728 143.274 377.628 140.824 379.428 138.957 C 381.228 137.09 383.678 136.157 386.778 136.157 C 389.878 136.157 392.461 137.44 394.528 140.007 C 396.595 142.574 397.628 145.99 397.628 150.257 C 397.628 151.057 397.561 152.19 397.428 153.657 C 394.095 155.99 390.261 157.157 385.928 157.157 C 383.261 157.157 381.061 156.107 379.328 154.007 Z M 420.613 186.057 L 434.513 191.957 C 443.046 183.757 449.296 176.29 453.263 169.557 C 457.23 162.824 459.213 155.99 459.213 149.057 C 459.213 142.124 457.28 136.524 453.413 132.257 C 449.546 127.99 444.396 125.857 437.963 125.857 C 431.53 125.857 426.013 128.024 421.413 132.357 C 416.813 136.69 414.513 141.824 414.513 147.757 C 414.513 153.69 416.13 158.457 419.363 162.057 C 422.596 165.657 426.646 167.457 431.513 167.457 C 436.38 167.457 440.813 165.857 444.813 162.657 C 441.28 170.057 433.213 177.857 420.613 186.057 Z M 429.213 154.007 C 427.48 151.907 426.613 149.34 426.613 146.307 C 426.613 143.274 427.513 140.824 429.313 138.957 C 431.113 137.09 433.563 136.157 436.663 136.157 C 439.763 136.157 442.346 137.44 444.413 140.007 C 446.48 142.574 447.513 145.99 447.513 150.257 C 447.513 151.057 447.446 152.19 447.313 153.657 C 443.98 155.99 440.146 157.157 435.813 157.157 C 433.146 157.157 430.946 156.107 429.213 154.007 Z M 470.513 186.057 L 484.413 191.957 C 492.946 183.757 499.196 176.29 503.163 169.557 C 507.13 162.824 509.113 155.99 509.113 149.057 C 509.113 142.124 507.18 136.524 503.313 132.257 C 499.446 127.99 494.296 125.857 487.863 125.857 C 481.43 125.857 475.913 128.024 471.313 132.357 C 466.713 136.69 464.413 141.824 464.413 147.757 C 464.413 153.69 466.03 158.457 469.263 162.057 C 472.496 165.657 476.546 167.457 481.413 167.457 C 486.28 167.457 490.713 165.857 494.713 162.657 C 491.18 170.057 483.113 177.857 470.513 186.057 Z M 479.113 154.007 C 477.38 151.907 476.513 149.34 476.513 146.307 C 476.513 143.274 477.413 140.824 479.213 138.957 C 481.013 137.09 483.463 136.157 486.563 136.157 C 489.663 136.157 492.246 137.44 494.313 140.007 C 496.38 142.574 497.413 145.99 497.413 150.257 C 497.413 151.057 497.346 152.19 497.213 153.657 C 493.88 155.99 490.046 157.157 485.713 157.157 C 483.046 157.157 480.846 156.107 479.113 154.007 Z M 525.412 175.457 L 515.612 179.357 C 517.345 182.557 518.212 185.19 518.212 187.257 C 518.212 190.59 516.245 194.557 512.312 199.157 L 516.412 202.157 C 524.679 195.824 528.812 189.824 528.812 184.157 C 528.812 181.224 527.679 178.324 525.412 175.457 Z M 589.111 190.857 L 590.211 179.457 L 569.711 181.057 L 569.011 164.857 L 570.411 121.357 L 556.211 123.857 L 557.411 166.557 L 556.211 190.857 Z M 604.006 169.357 L 629.006 167.057 L 631.006 164.957 C 632.006 161.224 632.506 157.89 632.506 154.957 C 632.506 150.024 631.156 146.19 628.456 143.457 C 625.756 140.724 621.973 139.357 617.106 139.357 C 610.773 139.357 605.239 142.424 600.506 148.557 C 595.773 154.69 593.406 161.824 593.406 169.957 C 593.406 176.424 595.106 181.707 598.506 185.807 C 601.906 189.907 606.306 191.957 611.706 191.957 C 614.239 191.957 616.689 191.54 619.056 190.707 C 621.423 189.874 623.323 188.94 624.756 187.907 C 626.189 186.874 627.606 185.624 629.006 184.157 C 630.406 182.69 631.439 181.39 632.106 180.257 L 627.506 174.657 L 625.706 176.157 C 624.506 177.157 622.839 178.157 620.706 179.157 C 618.573 180.157 616.539 180.657 614.606 180.657 C 608.673 180.657 605.139 176.89 604.006 169.357 Z M 621.006 156.357 C 621.006 157.357 620.906 158.624 620.706 160.157 L 603.706 162.257 C 604.039 158.59 605.206 155.574 607.206 153.207 C 609.206 150.84 611.673 149.657 614.606 149.657 C 618.873 149.657 621.006 151.89 621.006 156.357 Z M 650.057 179.557 C 647.89 178.224 646.44 177.157 645.707 176.357 C 644.974 175.557 644.407 174.89 644.007 174.357 L 636.107 183.557 L 637.907 185.657 C 639.107 187.057 641.09 188.457 643.857 189.857 C 646.624 191.257 649.607 191.957 652.807 191.957 C 657.807 191.957 662.224 190.19 666.057 186.657 C 669.89 183.124 671.807 179.024 671.807 174.357 C 671.807 171.09 670.657 168.274 668.357 165.907 C 666.057 163.54 663.54 161.84 660.807 160.807 C 658.074 159.774 655.557 158.64 653.257 157.407 C 650.957 156.174 649.807 154.94 649.807 153.707 C 649.807 152.474 650.224 151.507 651.057 150.807 C 651.89 150.107 653.09 149.757 654.657 149.757 C 656.224 149.757 658.024 150.24 660.057 151.207 C 662.09 152.174 663.474 152.957 664.207 153.557 C 664.94 154.157 665.54 154.657 666.007 155.057 L 672.707 142.857 C 670.574 141.657 668.357 140.774 666.057 140.207 C 663.757 139.64 661.407 139.357 659.007 139.357 C 653.874 139.357 649.34 141.024 645.407 144.357 C 641.474 147.69 639.507 151.59 639.507 156.057 C 639.507 158.724 640.257 161.09 641.757 163.157 C 643.257 165.224 645.09 166.84 647.257 168.007 C 649.424 169.174 651.59 170.224 653.757 171.157 C 655.924 172.09 657.757 173.024 659.257 173.957 C 660.757 174.89 661.507 175.89 661.507 176.957 C 661.507 180.024 659.774 181.557 656.307 181.557 C 654.307 181.557 652.224 180.89 650.057 179.557 Z M 700.706 142.607 C 698.439 144.107 696.773 145.457 695.706 146.657 C 694.639 147.857 693.739 148.99 693.006 150.057 L 693.006 139.257 L 694.306 113.457 L 680.606 115.957 L 681.806 166.557 L 680.806 189.257 C 688.673 190.324 694.273 190.857 697.606 190.857 C 704.873 190.857 710.789 188.074 715.356 182.507 C 719.923 176.94 722.206 169.79 722.206 161.057 C 722.206 154.99 720.806 150.024 718.006 146.157 C 715.206 142.29 711.573 140.357 707.106 140.357 C 705.106 140.357 702.973 141.107 700.706 142.607 Z M 711.106 166.707 C 711.106 175.607 707.906 180.057 701.506 180.057 C 699.039 180.057 696.406 179.89 693.606 179.557 L 693.006 164.857 L 693.006 156.157 C 696.739 154.29 700.139 153.357 703.206 153.357 C 708.473 153.357 711.106 157.807 711.106 166.707 Z M 730.505 142.457 L 731.605 166.557 L 730.405 190.857 L 743.805 188.357 L 742.705 164.857 L 743.905 139.957 Z M 731.705 130.857 C 732.972 132.324 734.722 133.057 736.955 133.057 C 739.188 133.057 741.155 132.174 742.855 130.407 C 744.555 128.64 745.405 126.524 745.405 124.057 C 745.405 121.59 744.805 119.74 743.605 118.507 C 742.405 117.274 740.672 116.657 738.405 116.657 C 736.138 116.657 734.138 117.54 732.405 119.307 C 730.672 121.074 729.805 122.515 729.805 123.632 C 729.805 124.749 729.805 125.307 729.805 125.307 C 729.805 127.54 730.438 129.39 731.705 130.857 Z M 762.294 169.357 L 787.294 167.057 L 789.294 164.957 C 790.294 161.224 790.794 157.89 790.794 154.957 C 790.794 150.024 789.444 146.19 786.744 143.457 C 784.044 140.724 780.261 139.357 775.394 139.357 C 769.061 139.357 763.527 142.424 758.794 148.557 C 754.061 154.69 751.694 161.824 751.694 169.957 C 751.694 176.424 753.394 181.707 756.794 185.807 C 760.194 189.907 764.594 191.957 769.994 191.957 C 772.527 191.957 774.977 191.54 777.344 190.707 C 779.711 189.874 781.611 188.94 783.044 187.907 C 784.477 186.874 785.894 185.624 787.294 184.157 C 788.694 182.69 789.727 181.39 790.394 180.257 L 785.794 174.657 L 783.994 176.157 C 782.794 177.157 781.127 178.157 778.994 179.157 C 776.861 180.157 774.827 180.657 772.894 180.657 C 766.961 180.657 763.427 176.89 762.294 169.357 Z M 779.294 156.357 C 779.294 157.357 779.194 158.624 778.994 160.157 L 761.994 162.257 C 762.327 158.59 763.494 155.574 765.494 153.207 C 767.494 150.84 769.961 149.657 772.894 149.657 C 777.161 149.657 779.294 151.89 779.294 156.357 Z M 871.893 189.157 L 863.593 164.057 L 850.693 121.257 L 832.793 122.557 L 819.393 165.557 L 810.593 189.857 L 823.393 190.857 L 828.693 171.857 L 852.593 171.857 L 857.493 191.357 Z M 849.593 161.257 L 831.793 161.257 L 840.393 134.257 L 841.693 134.257 Z M 892.493 162.057 L 888.193 140.057 L 874.593 142.557 L 881.793 166.857 L 887.693 191.157 L 904.793 189.657 L 911.093 166.257 L 918.593 141.457 L 906.193 139.957 L 900.793 164.657 L 897.493 178.357 L 896.193 178.357 Z M 932.591 169.357 L 957.591 167.057 L 959.591 164.957 C 960.591 161.224 961.091 157.89 961.091 154.957 C 961.091 150.024 959.741 146.19 957.041 143.457 C 954.341 140.724 950.558 139.357 945.691 139.357 C 939.358 139.357 933.824 142.424 929.091 148.557 C 924.358 154.69 921.991 161.824 921.991 169.957 C 921.991 176.424 923.691 181.707 927.091 185.807 C 930.491 189.907 934.891 191.957 940.291 191.957 C 942.824 191.957 945.274 191.54 947.641 190.707 C 950.008 189.874 951.908 188.94 953.341 187.907 C 954.774 186.874 956.191 185.624 957.591 184.157 C 958.991 182.69 960.024 181.39 960.691 180.257 L 956.091 174.657 L 954.291 176.157 C 953.091 177.157 951.424 178.157 949.291 179.157 C 947.158 180.157 945.124 180.657 943.191 180.657 C 937.258 180.657 933.724 176.89 932.591 169.357 Z M 949.591 156.357 C 949.591 157.357 949.491 158.624 949.291 160.157 L 932.291 162.257 C 932.624 158.59 933.791 155.574 935.791 153.207 C 937.791 150.84 940.258 149.657 943.191 149.657 C 947.458 149.657 949.591 151.89 949.591 156.357 Z M 968.742 189.407 C 969.909 190.774 971.542 191.457 973.642 191.457 C 975.742 191.457 977.575 190.624 979.142 188.957 C 980.709 187.29 981.492 185.19 981.492 182.657 C 981.492 178.257 979.325 176.057 974.992 176.057 C 972.792 176.057 970.909 176.874 969.342 178.507 C 967.775 180.14 966.992 181.49 966.992 182.557 C 966.992 183.624 966.992 184.157 966.992 184.157 C 966.992 186.29 967.575 188.04 968.742 189.407 Z" style="fill: url(&quot;#color-4&quot;);">
      <title>Land</title>
    </path>
    <path d="M -119.007 961.758 C -119.007 961.758 276.997 863.241 475.212 814.85 C 570.766 791.522 571.954 791.823 623.064 853.931 C 738.553 994.271 972.49 1272.5 972.49 1272.5 L -192.4 1277.76 L -119.007 961.758 Z" style="stroke-width: 16px; fill: rgb(0, 0, 0); visibility: hidden;">
      <title>BL</title>
    </path>
    <path d="M 913.683 779.813 C 855.104 721.257 854.383 721.234 934.766 701.178 C 1032.212 676.865 1227.229 628.745 1227.229 628.745 L 1399.817 778.686 L 1572.405 928.627 L 1381.598 992.49 L 1190.791 1056.353 C 1190.791 1056.353 1005.975 872.07 913.683 779.813 Z" style="stroke-width: 16px; fill: rgb(0, 0, 0); visibility: hidden;">
      <title>BR</title>
    </path>
    <path d="M -239.607 423.874 L -312.274 254.174 L -384.94 84.475 L -293.532 82.722 L -202.124 80.97 L -110.716 79.217 L -19.308 77.465 C -19.308 77.465 64.04 178.233 157.73 291.422 C 156.668 308.135 157.849 325.118 157.849 339.705 C 157.849 441.262 260.604 597.193 259.405 593.589 C 258.872 594.047 290.805 546.187 318.996 486.147 C 358.693 534.039 390.473 572.329 405.607 590.452 C 447.456 640.567 447.325 641.603 361.788 662.328 C 300.6 677.153 -94.273 763.272 -94.273 763.272 Z" style="stroke-width: 16px; fill: rgb(0, 0, 0); visibility: hidden;">
      <title>TLCut</title>
    </path>
    <path d="M 791.68 565.229 C 715.493 582.485 715.009 584.289 666.658 535.553 C 479.892 347.299 103.187 -26.043 103.187 -26.043 L 1108.792 -22.639 L 1511.382 402.953 C 1511.382 402.953 1031.528 510.904 791.68 565.229 Z" style="stroke-width: 16px; fill: rgb(0, 0, 0); visibility: hidden;">
      <title>TR</title>
    </path>
    <path style="stroke-width: 16px; stroke: url(&quot;#color-4&quot;); fill: rgb(0, 0, 0);" d="M 324.209 339.705 C 324.209 375.49 295.195 404.505 259.405 404.505 C 223.616 404.505 194.599 375.49 194.599 339.705 C 194.599 303.912 223.616 274.898 259.405 274.898 C 295.195 274.898 324.209 303.912 324.209 339.705 Z">
      <title>LocationCircle</title>
    </path>
    <path d="M 55.009 5.257 L 123.392 5.257 C 211.539 92.682 503.66 382.614 660.979 541.187 C 685.222 565.622 699.277 579.013 716.996 582.948 C 734.426 586.818 755.435 581.64 793.447 573.031 C 859.457 558.08 943.647 539.067 1031.01 519.36 L 1031.01 669.022 C 994.92 677.966 960.064 686.621 932.829 693.416 C 912.731 698.431 897.303 702.293 886.599 706.169 C 875.395 710.226 866.313 716.545 864.369 724.053 C 862.437 731.518 867.172 741.495 874.788 750.732 C 882.086 759.585 893.388 770.838 908.027 785.471 C 941.321 818.753 1031.01 908.27 1031.01 908.27 C 1030.298 986.695 1042.941 1029.063 974.145 1029.942 L 779.109 1029.26 C 724.716 964.125 669.705 898.019 629.241 848.848 C 576.025 785.404 570.8 783.759 473.315 807.078 C 346.978 837.921 140.304 889.124 7.009 922.208 L 7.009 749.32 C 128.312 722.76 322.245 680.14 363.672 670.103 C 406.483 659.73 431.373 653.063 438.319 641.541 C 442.494 634.614 440.479 624.315 435.282 615.757 C 430.443 607.792 422.22 597.865 411.748 585.324 C 396.621 567.211 364.851 528.932 325.155 481.042 L 322.717 478.1 C 343.302 432.877 360.953 381.849 360.953 339.705 C 360.953 288.923 375.278 216.342 259.405 212.711 C 184.31 210.368 163.896 243.071 158.828 280.201 C 94.935 203.009 36.511 132.391 7.009 96.728 L 7.009 53.257 C 7.009 26.747 28.499 5.257 55.009 5.257 Z" style="fill: rgb(0, 0, 0);">
      <title>Road</title>
    </path>
    <g style="visibility: hidden;">
      <title>guides</title>
      <line style="fill: rgb(216, 216, 216); stroke: rgb(0, 0, 0);" x1="-393.283" y1="-518.062" x2="1577.389" y2="1439.411"/>
      <line style="fill: rgb(216, 216, 216); stroke: rgb(0, 0, 0);" x1="-508.817" y1="-513.11" x2="1126.808" y2="1460.867"/>
      <line style="fill: rgb(216, 216, 216); stroke: rgb(0, 0, 0);" x1="-447.749" y1="1041.644" x2="1777.096" y2="493.684"/>
      <line style="fill: rgb(216, 216, 216); stroke: rgb(0, 0, 0);" x1="-518.719" y1="858.441" x2="1881.078" y2="322.034"/>
      <line style="fill: rgb(216, 216, 216); stroke: rgb(0, 0, 0);" x1="-337.16" y1="-518.06" x2="1702.861" y2="1437.719"/>
      <line style="fill: rgb(216, 216, 216); stroke: rgb(0, 0, 0);" x1="-337.16" y1="-518.06" x2="1702.861" y2="1437.719"/>
      <line style="fill: rgb(216, 216, 216); stroke: rgb(0, 0, 0);" x1="-514.23" y1="-502.2" x2="954.913" y2="1453.58"/>
      <line style="fill: rgb(216, 216, 216); stroke: rgb(0, 0, 0);" x1="-425.025" y1="1125.788" x2="1953.621" y2="509.982"/>
      <line style="fill: rgb(216, 216, 216); stroke: rgb(0, 0, 0);" x1="-580.96" y1="795.419" x2="1871.69" y2="282.688"/>
    </g>
  </g>
  <g style="visibility: hidden;" transform="matrix(1, 0, 0, 1, -48.2789, 162.706)">
    <title>COARSE_LOCATION</title>
    <circle style="stroke-width: 11px; fill: none; stroke: url(&quot;#color-6&quot;);" cx="554.344" cy="228.406" r="65.801"/>
    <path d="M 96.279 -162.71 L 1024.279 -162.71 C 1050.789 -162.71 1072.279 -141.22 1072.279 -114.71 L 1072.279 813.29 C 1072.279 817.521 1071.016 821.624 1069.988 825.533 C 958.243 638.135 801.388 480.741 615.053 368.932 L 614.601 368.661 C 635.596 323.286 654.004 271.386 654.004 228.749 C 654.004 178.916 668.064 107.679 554.337 104.12 C 440.614 100.568 454.67 178.916 454.67 228.749 C 454.67 248.13 458.483 269.528 464.617 291.401 C 335.599 235.596 195.099 199.638 48.279 187.946 L 48.279 -114.71 C 48.279 -141.22 69.769 -162.71 96.279 -162.71 Z M 617.938 228.749 C 617.938 263.875 589.462 292.35 554.337 292.35 C 519.211 292.35 490.736 263.875 490.736 228.749 C 490.736 193.624 519.211 165.148 554.337 165.148 C 589.462 165.148 617.938 193.624 617.938 228.749 Z" style="fill: url(&quot;#color-5&quot;);">
      <title>Sky</title>
    </path>
    <path d="M 1024.279 861.29 L 991.351 861.29 C 999.785 833.191 1007.082 804.592 1013.182 775.497 C 1010.375 771.345 1007.544 767.21 1004.689 763.092 L 999.591 762.087 C 993 795.839 984.78 828.909 975.025 861.29 L 696.084 861.29 C 655.917 819.498 614.548 779.758 572.091 742.164 C 570.063 745.701 568.015 749.227 565.948 752.741 C 604.741 787.161 642.593 823.361 679.437 861.29 L 493.539 861.29 C 519.711 826.385 543.923 790.194 565.948 752.741 C 562.141 749.363 558.324 746.002 554.499 742.658 C 530.562 783.762 503.934 823.314 474.919 861.29 L 132.311 861.29 C 104.822 827.915 76.816 795.417 48.279 763.861 L 48.279 722.069 C 116.772 658.467 175.691 586.779 221.047 507.604 C 216.731 505.22 212.408 502.857 208.079 500.512 C 165.908 574.451 111.524 641.637 48.279 701.69 L 48.279 424.248 C 102.463 446.735 155.773 472.193 208.079 500.512 C 210.031 497.09 211.956 493.653 213.856 490.202 C 159.703 460.929 104.459 434.684 48.279 411.589 L 48.279 211.896 C 133.616 218.654 215.858 233.638 295.04 256.134 C 295.718 251.934 296.36 247.72 296.965 243.491 L 312.797 245.801 C 312.059 250.758 311.273 255.696 310.437 260.614 C 361.389 275.793 411.063 294.094 459.468 315.325 C 473.735 357.527 493.991 398.655 512.042 431.322 C 521.103 447.722 529.331 461.438 535.154 470.749 C 538.091 475.444 540.509 479.166 542.124 481.565 C 542.96 482.806 543.708 483.879 544.194 484.534 C 544.504 484.952 545.075 485.672 545.499 486.124 C 546.055 486.716 549.593 489.464 552.774 489.882 C 555.324 490.217 561.535 488.117 563.595 485.625 C 564.627 484.376 565.471 482.216 565.941 480.456 C 565.719 481.582 565.445 482.458 565.322 482.736 C 565.141 483.15 564.851 483.691 564.785 483.806 C 564.751 483.865 564.712 483.929 564.778 483.824 C 564.94 483.562 565.206 483.142 565.6 482.521 C 566.392 481.273 567.602 479.37 569.152 476.9 C 572.235 471.989 576.726 464.732 582.049 455.753 C 592.646 437.874 602.878 419.654 614.611 396.255 C 634.544 408.405 654.114 421.06 673.303 434.205 C 673.779 431.89 674.248 429.571 674.709 427.248 L 690.397 430.392 C 689.471 434.97 688.514 439.536 687.527 444.088 C 811.343 531.331 918.768 639.178 1004.689 763.092 L 1015.29 765.183 C 1014.604 768.628 1013.901 772.066 1013.182 775.497 C 1028.971 798.854 1044.004 822.767 1058.246 847.206 C 1049.557 855.907 1037.547 861.29 1024.279 861.29 Z M 96.279 861.29 C 69.769 861.29 48.279 839.8 48.279 813.29 L 48.279 781.565 C 71.492 807.518 94.355 834.104 116.878 861.29 L 96.279 861.29 Z M 226.851 497.296 C 224.942 500.746 223.007 504.182 221.047 507.604 C 313.054 558.413 401.902 618.108 486.884 686.094 C 509.718 704.361 532.26 723.219 554.499 742.658 C 556.55 739.136 558.581 735.603 560.592 732.058 C 538.798 713.047 516.722 694.598 494.38 676.724 C 408.994 608.415 319.552 548.403 226.851 497.296 Z M 310.437 260.614 C 305.318 259.089 300.185 257.596 295.04 256.134 C 281.473 340.19 253.41 418.326 213.856 490.202 C 218.195 492.547 222.526 494.912 226.851 497.296 C 267.159 424.464 296.031 345.418 310.437 260.614 Z M 687.527 444.088 C 682.809 440.764 678.068 437.469 673.303 434.205 C 651.329 540.946 612.645 640.315 560.592 732.058 C 564.434 735.409 568.267 738.778 572.091 742.164 C 624.831 650.191 664.416 550.716 687.527 444.088 Z" style="fill: url(&quot;#color-6&quot;);">
      <title>Earth</title>
    </path>
  </g>
  <g style="visibility: hidden;" transform="matrix(1, 0, 0, 1, -7.009, -5.257)">
    <title>USE_SCAN</title>
    <rect style="transform-origin: 7.009px 5.257px; pointer-events: none; fill: url(&quot;#color-7&quot;);" x="7.009" width="1024" height="1024" rx="48" ry="48" y="5.257">
      <title>RoundedBackground</title>
    </rect>
    <path d="M 983.009 5.257 C 1009.52 5.257 1031.01 26.747 1031.01 53.257 L 1031.01 502.949 C 945.638 522.208 861.297 541.258 789.913 557.427 C 751.738 566.074 734.412 570.426 720.465 567.328 C 706.808 564.295 696.445 554.22 672.337 529.919 C 502.034 358.259 243.237 101.553 146.119 5.257 Z M 55.009 1029.26 C 28.499 1029.26 7.009 1007.77 7.009 981.257 L 7.009 938.683 C 137.352 906.32 341.699 855.68 477.109 822.622 C 570.732 799.285 567.883 798.242 616.887 859.014 C 659.046 910.245 709.183 970.56 758.171 1029.26 Z M 919.339 774.155 C 904.688 759.51 893.933 748.802 887.133 740.554 C 880.65 732.691 879.246 730.431 879.858 728.063 C 880.46 725.738 882.608 724.631 892.046 721.213 C 901.984 717.615 916.61 713.953 936.703 708.94 C 964.398 702.03 997.361 693.842 1031.01 685.501 L 1031.01 885.671 C 991.557 846.298 951.592 806.395 919.339 774.155 Z M 149.574 294.115 C 148.514 311.359 149.849 325.396 149.849 339.705 C 149.849 391.966 176.231 458.129 201.917 509.652 C 214.786 535.465 227.677 558.07 237.192 573.852 C 241.968 581.774 245.963 588.092 248.692 592.261 C 250.073 594.372 251.199 596.034 251.935 597.074 C 252.333 597.635 252.766 598.216 253.056 598.567 C 253.307 598.87 254.181 599.788 254.956 600.304 C 255.514 600.674 257.397 601.505 258.708 601.62 C 259.825 601.718 262.451 601.184 263.658 600.429 C 264.645 599.81 265.915 598.263 266.573 597.121 C 266.484 597.298 266.396 597.459 266.375 597.496 C 266.374 597.498 266.383 597.483 266.47 597.343 C 266.664 597.031 266.974 596.542 267.411 595.853 C 268.286 594.474 269.612 592.388 271.306 589.686 C 274.68 584.301 279.56 576.393 285.321 566.617 C 296.811 547.121 308.232 526.59 320.809 500.869 C 356.774 544.253 384.325 577.447 399.466 595.58 C 409.919 608.097 417.372 617.093 421.606 624.064 C 425.481 630.443 425.934 631.095 424.616 633.281 C 420.574 639.987 402.63 644.201 359.904 654.553 C 315.736 665.255 127.392 706.623 7.009 732.96 L 7.009 121.831 C 37.511 158.702 87.443 219.053 149.574 294.115 Z M 370.728 186.057 L 384.628 191.957 C 393.161 183.757 399.411 176.29 403.378 169.557 C 407.345 162.824 409.328 155.99 409.328 149.057 C 409.328 142.124 407.395 136.524 403.528 132.257 C 399.661 127.99 394.511 125.857 388.078 125.857 C 381.645 125.857 376.128 128.024 371.528 132.357 C 366.928 136.69 364.628 141.824 364.628 147.757 C 364.628 153.69 366.245 158.457 369.478 162.057 C 372.711 165.657 376.761 167.457 381.628 167.457 C 386.495 167.457 390.928 165.857 394.928 162.657 C 391.395 170.057 383.328 177.857 370.728 186.057 Z M 379.328 154.007 C 377.595 151.907 376.728 149.34 376.728 146.307 C 376.728 143.274 377.628 140.824 379.428 138.957 C 381.228 137.09 383.678 136.157 386.778 136.157 C 389.878 136.157 392.461 137.44 394.528 140.007 C 396.595 142.574 397.628 145.99 397.628 150.257 C 397.628 151.057 397.561 152.19 397.428 153.657 C 394.095 155.99 390.261 157.157 385.928 157.157 C 383.261 157.157 381.061 156.107 379.328 154.007 Z M 420.613 186.057 L 434.513 191.957 C 443.046 183.757 449.296 176.29 453.263 169.557 C 457.23 162.824 459.213 155.99 459.213 149.057 C 459.213 142.124 457.28 136.524 453.413 132.257 C 449.546 127.99 444.396 125.857 437.963 125.857 C 431.53 125.857 426.013 128.024 421.413 132.357 C 416.813 136.69 414.513 141.824 414.513 147.757 C 414.513 153.69 416.13 158.457 419.363 162.057 C 422.596 165.657 426.646 167.457 431.513 167.457 C 436.38 167.457 440.813 165.857 444.813 162.657 C 441.28 170.057 433.213 177.857 420.613 186.057 Z M 429.213 154.007 C 427.48 151.907 426.613 149.34 426.613 146.307 C 426.613 143.274 427.513 140.824 429.313 138.957 C 431.113 137.09 433.563 136.157 436.663 136.157 C 439.763 136.157 442.346 137.44 444.413 140.007 C 446.48 142.574 447.513 145.99 447.513 150.257 C 447.513 151.057 447.446 152.19 447.313 153.657 C 443.98 155.99 440.146 157.157 435.813 157.157 C 433.146 157.157 430.946 156.107 429.213 154.007 Z M 470.513 186.057 L 484.413 191.957 C 492.946 183.757 499.196 176.29 503.163 169.557 C 507.13 162.824 509.113 155.99 509.113 149.057 C 509.113 142.124 507.18 136.524 503.313 132.257 C 499.446 127.99 494.296 125.857 487.863 125.857 C 481.43 125.857 475.913 128.024 471.313 132.357 C 466.713 136.69 464.413 141.824 464.413 147.757 C 464.413 153.69 466.03 158.457 469.263 162.057 C 472.496 165.657 476.546 167.457 481.413 167.457 C 486.28 167.457 490.713 165.857 494.713 162.657 C 491.18 170.057 483.113 177.857 470.513 186.057 Z M 479.113 154.007 C 477.38 151.907 476.513 149.34 476.513 146.307 C 476.513 143.274 477.413 140.824 479.213 138.957 C 481.013 137.09 483.463 136.157 486.563 136.157 C 489.663 136.157 492.246 137.44 494.313 140.007 C 496.38 142.574 497.413 145.99 497.413 150.257 C 497.413 151.057 497.346 152.19 497.213 153.657 C 493.88 155.99 490.046 157.157 485.713 157.157 C 483.046 157.157 480.846 156.107 479.113 154.007 Z M 525.412 175.457 L 515.612 179.357 C 517.345 182.557 518.212 185.19 518.212 187.257 C 518.212 190.59 516.245 194.557 512.312 199.157 L 516.412 202.157 C 524.679 195.824 528.812 189.824 528.812 184.157 C 528.812 181.224 527.679 178.324 525.412 175.457 Z M 589.111 190.857 L 590.211 179.457 L 569.711 181.057 L 569.011 164.857 L 570.411 121.357 L 556.211 123.857 L 557.411 166.557 L 556.211 190.857 Z M 604.006 169.357 L 629.006 167.057 L 631.006 164.957 C 632.006 161.224 632.506 157.89 632.506 154.957 C 632.506 150.024 631.156 146.19 628.456 143.457 C 625.756 140.724 621.973 139.357 617.106 139.357 C 610.773 139.357 605.239 142.424 600.506 148.557 C 595.773 154.69 593.406 161.824 593.406 169.957 C 593.406 176.424 595.106 181.707 598.506 185.807 C 601.906 189.907 606.306 191.957 611.706 191.957 C 614.239 191.957 616.689 191.54 619.056 190.707 C 621.423 189.874 623.323 188.94 624.756 187.907 C 626.189 186.874 627.606 185.624 629.006 184.157 C 630.406 182.69 631.439 181.39 632.106 180.257 L 627.506 174.657 L 625.706 176.157 C 624.506 177.157 622.839 178.157 620.706 179.157 C 618.573 180.157 616.539 180.657 614.606 180.657 C 608.673 180.657 605.139 176.89 604.006 169.357 Z M 621.006 156.357 C 621.006 157.357 620.906 158.624 620.706 160.157 L 603.706 162.257 C 604.039 158.59 605.206 155.574 607.206 153.207 C 609.206 150.84 611.673 149.657 614.606 149.657 C 618.873 149.657 621.006 151.89 621.006 156.357 Z M 650.057 179.557 C 647.89 178.224 646.44 177.157 645.707 176.357 C 644.974 175.557 644.407 174.89 644.007 174.357 L 636.107 183.557 L 637.907 185.657 C 639.107 187.057 641.09 188.457 643.857 189.857 C 646.624 191.257 649.607 191.957 652.807 191.957 C 657.807 191.957 662.224 190.19 666.057 186.657 C 669.89 183.124 671.807 179.024 671.807 174.357 C 671.807 171.09 670.657 168.274 668.357 165.907 C 666.057 163.54 663.54 161.84 660.807 160.807 C 658.074 159.774 655.557 158.64 653.257 157.407 C 650.957 156.174 649.807 154.94 649.807 153.707 C 649.807 152.474 650.224 151.507 651.057 150.807 C 651.89 150.107 653.09 149.757 654.657 149.757 C 656.224 149.757 658.024 150.24 660.057 151.207 C 662.09 152.174 663.474 152.957 664.207 153.557 C 664.94 154.157 665.54 154.657 666.007 155.057 L 672.707 142.857 C 670.574 141.657 668.357 140.774 666.057 140.207 C 663.757 139.64 661.407 139.357 659.007 139.357 C 653.874 139.357 649.34 141.024 645.407 144.357 C 641.474 147.69 639.507 151.59 639.507 156.057 C 639.507 158.724 640.257 161.09 641.757 163.157 C 643.257 165.224 645.09 166.84 647.257 168.007 C 649.424 169.174 651.59 170.224 653.757 171.157 C 655.924 172.09 657.757 173.024 659.257 173.957 C 660.757 174.89 661.507 175.89 661.507 176.957 C 661.507 180.024 659.774 181.557 656.307 181.557 C 654.307 181.557 652.224 180.89 650.057 179.557 Z M 700.706 142.607 C 698.439 144.107 696.773 145.457 695.706 146.657 C 694.639 147.857 693.739 148.99 693.006 150.057 L 693.006 139.257 L 694.306 113.457 L 680.606 115.957 L 681.806 166.557 L 680.806 189.257 C 688.673 190.324 694.273 190.857 697.606 190.857 C 704.873 190.857 710.789 188.074 715.356 182.507 C 719.923 176.94 722.206 169.79 722.206 161.057 C 722.206 154.99 720.806 150.024 718.006 146.157 C 715.206 142.29 711.573 140.357 707.106 140.357 C 705.106 140.357 702.973 141.107 700.706 142.607 Z M 711.106 166.707 C 711.106 175.607 707.906 180.057 701.506 180.057 C 699.039 180.057 696.406 179.89 693.606 179.557 L 693.006 164.857 L 693.006 156.157 C 696.739 154.29 700.139 153.357 703.206 153.357 C 708.473 153.357 711.106 157.807 711.106 166.707 Z M 730.505 142.457 L 731.605 166.557 L 730.405 190.857 L 743.805 188.357 L 742.705 164.857 L 743.905 139.957 Z M 731.705 130.857 C 732.972 132.324 734.722 133.057 736.955 133.057 C 739.188 133.057 741.155 132.174 742.855 130.407 C 744.555 128.64 745.405 126.524 745.405 124.057 C 745.405 121.59 744.805 119.74 743.605 118.507 C 742.405 117.274 740.672 116.657 738.405 116.657 C 736.138 116.657 734.138 117.54 732.405 119.307 C 730.672 121.074 729.805 122.515 729.805 123.632 C 729.805 124.749 729.805 125.307 729.805 125.307 C 729.805 127.54 730.438 129.39 731.705 130.857 Z M 762.294 169.357 L 787.294 167.057 L 789.294 164.957 C 790.294 161.224 790.794 157.89 790.794 154.957 C 790.794 150.024 789.444 146.19 786.744 143.457 C 784.044 140.724 780.261 139.357 775.394 139.357 C 769.061 139.357 763.527 142.424 758.794 148.557 C 754.061 154.69 751.694 161.824 751.694 169.957 C 751.694 176.424 753.394 181.707 756.794 185.807 C 760.194 189.907 764.594 191.957 769.994 191.957 C 772.527 191.957 774.977 191.54 777.344 190.707 C 779.711 189.874 781.611 188.94 783.044 187.907 C 784.477 186.874 785.894 185.624 787.294 184.157 C 788.694 182.69 789.727 181.39 790.394 180.257 L 785.794 174.657 L 783.994 176.157 C 782.794 177.157 781.127 178.157 778.994 179.157 C 776.861 180.157 774.827 180.657 772.894 180.657 C 766.961 180.657 763.427 176.89 762.294 169.357 Z M 779.294 156.357 C 779.294 157.357 779.194 158.624 778.994 160.157 L 761.994 162.257 C 762.327 158.59 763.494 155.574 765.494 153.207 C 767.494 150.84 769.961 149.657 772.894 149.657 C 777.161 149.657 779.294 151.89 779.294 156.357 Z M 871.893 189.157 L 863.593 164.057 L 850.693 121.257 L 832.793 122.557 L 819.393 165.557 L 810.593 189.857 L 823.393 190.857 L 828.693 171.857 L 852.593 171.857 L 857.493 191.357 Z M 849.593 161.257 L 831.793 161.257 L 840.393 134.257 L 841.693 134.257 Z M 892.493 162.057 L 888.193 140.057 L 874.593 142.557 L 881.793 166.857 L 887.693 191.157 L 904.793 189.657 L 911.093 166.257 L 918.593 141.457 L 906.193 139.957 L 900.793 164.657 L 897.493 178.357 L 896.193 178.357 Z M 932.591 169.357 L 957.591 167.057 L 959.591 164.957 C 960.591 161.224 961.091 157.89 961.091 154.957 C 961.091 150.024 959.741 146.19 957.041 143.457 C 954.341 140.724 950.558 139.357 945.691 139.357 C 939.358 139.357 933.824 142.424 929.091 148.557 C 924.358 154.69 921.991 161.824 921.991 169.957 C 921.991 176.424 923.691 181.707 927.091 185.807 C 930.491 189.907 934.891 191.957 940.291 191.957 C 942.824 191.957 945.274 191.54 947.641 190.707 C 950.008 189.874 951.908 188.94 953.341 187.907 C 954.774 186.874 956.191 185.624 957.591 184.157 C 958.991 182.69 960.024 181.39 960.691 180.257 L 956.091 174.657 L 954.291 176.157 C 953.091 177.157 951.424 178.157 949.291 179.157 C 947.158 180.157 945.124 180.657 943.191 180.657 C 937.258 180.657 933.724 176.89 932.591 169.357 Z M 949.591 156.357 C 949.591 157.357 949.491 158.624 949.291 160.157 L 932.291 162.257 C 932.624 158.59 933.791 155.574 935.791 153.207 C 937.791 150.84 940.258 149.657 943.191 149.657 C 947.458 149.657 949.591 151.89 949.591 156.357 Z M 968.742 189.407 C 969.909 190.774 971.542 191.457 973.642 191.457 C 975.742 191.457 977.575 190.624 979.142 188.957 C 980.709 187.29 981.492 185.19 981.492 182.657 C 981.492 178.257 979.325 176.057 974.992 176.057 C 972.792 176.057 970.909 176.874 969.342 178.507 C 967.775 180.14 966.992 181.49 966.992 182.557 C 966.992 183.624 966.992 184.157 966.992 184.157 C 966.992 186.29 967.575 188.04 968.742 189.407 Z" style="fill: url(&quot;#color-4&quot;); visibility: hidden;">
      <title>Land</title>
    </path>
    <path d="M -119.007 961.758 C -119.007 961.758 276.997 863.241 475.212 814.85 C 570.766 791.522 571.954 791.823 623.064 853.931 C 738.553 994.271 972.49 1272.5 972.49 1272.5 L -192.4 1277.76 L -119.007 961.758 Z" style="stroke-width: 16px; fill: rgb(0, 0, 0); visibility: hidden;">
      <title>BL</title>
    </path>
    <path d="M 913.683 779.813 C 855.104 721.257 854.383 721.234 934.766 701.178 C 1032.212 676.865 1227.229 628.745 1227.229 628.745 L 1399.817 778.686 L 1572.405 928.627 L 1381.598 992.49 L 1190.791 1056.353 C 1190.791 1056.353 1005.975 872.07 913.683 779.813 Z" style="stroke-width: 16px; fill: rgb(0, 0, 0); visibility: hidden;">
      <title>BR</title>
    </path>
    <path d="M -239.607 423.874 L -312.274 254.174 L -384.94 84.475 L -293.532 82.722 L -202.124 80.97 L -110.716 79.217 L -19.308 77.465 C -19.308 77.465 64.04 178.233 157.73 291.422 C 156.668 308.135 157.849 325.118 157.849 339.705 C 157.849 441.262 260.604 597.193 259.405 593.589 C 258.872 594.047 290.805 546.187 318.996 486.147 C 358.693 534.039 390.473 572.329 405.607 590.452 C 447.456 640.567 447.325 641.603 361.788 662.328 C 300.6 677.153 -94.273 763.272 -94.273 763.272 Z" style="stroke-width: 16px; fill: rgb(0, 0, 0); visibility: hidden;">
      <title>TLCut</title>
    </path>
    <path d="M 791.68 565.229 C 715.493 582.485 715.009 584.289 666.658 535.553 C 479.892 347.299 103.187 -26.043 103.187 -26.043 L 1108.792 -22.639 L 1511.382 402.953 C 1511.382 402.953 1031.528 510.904 791.68 565.229 Z" style="stroke-width: 16px; fill: rgb(0, 0, 0); visibility: hidden;">
      <title>TR</title>
    </path>
    <path d="M 55.009 5.257 L 123.392 5.257 C 211.539 92.682 503.66 382.614 660.979 541.187 C 685.222 565.622 699.277 579.013 716.996 582.948 C 734.426 586.818 755.435 581.64 793.447 573.031 C 859.457 558.08 943.647 539.067 1031.01 519.36 L 1031.01 669.022 C 994.92 677.966 960.064 686.621 932.829 693.416 C 912.731 698.431 897.303 702.293 886.599 706.169 C 875.395 710.226 866.313 716.545 864.369 724.053 C 862.437 731.518 867.172 741.495 874.788 750.732 C 882.086 759.585 893.388 770.838 908.027 785.471 C 941.321 818.753 1031.01 908.27 1031.01 908.27 C 1030.298 986.695 1042.941 1029.063 974.145 1029.942 L 779.109 1029.26 C 724.716 964.125 669.705 898.019 629.241 848.848 C 576.025 785.404 570.8 783.759 473.315 807.078 C 346.978 837.921 140.304 889.124 7.009 922.208 L 7.009 749.32 C 128.312 722.76 322.245 680.14 363.672 670.103 C 406.483 659.73 431.373 653.063 438.319 641.541 C 442.494 634.614 440.479 624.315 435.282 615.757 C 430.443 607.792 422.22 597.865 411.748 585.324 C 396.621 567.211 364.851 528.932 325.155 481.042 L 322.717 478.1 C 343.302 432.877 360.953 381.849 360.953 339.705 C 360.953 288.923 375.278 216.342 259.405 212.711 C 184.31 210.368 163.896 243.071 158.828 280.201 C 94.935 203.009 36.511 132.391 7.009 96.728 L 7.009 53.257 C 7.009 26.747 28.499 5.257 55.009 5.257 Z" style="fill: rgb(0, 0, 0); visibility: hidden;">
      <title>Road</title>
    </path>
    <g style="visibility: hidden;">
      <title>guides</title>
      <path style="fill: rgb(216, 216, 216); stroke: rgb(0, 0, 0);" d="M 989.918 1193.45 L 1314.575 737.227 L 522.377 615.023 L -316.787 991.484">
        <title>Floor</title>
      </path>
      <polygon style="fill: rgb(216, 216, 216); stroke: rgb(0, 0, 0);" points="516.044 82.427 1312.525 171.087 1314.421 736.648 516.951 617.979"/>
      <path style="fill: rgb(216, 216, 216); stroke: rgb(0, 0, 0);" d="M 514.397 82.776 L -326.414 105.503 L -321.689 991.844 L 518.674 617.558 L 514.397 82.776 Z"/>
      <g style="visibility: hidden;">
        <title>Vanish</title>
        <line style="fill: rgb(216, 216, 216); stroke-width: 5px; stroke-dasharray: 5; stroke: rgb(0, 0, 0);" x1="-323.653" y1="108.014" x2="1815.44" y2="40.148"/>
        <line style="fill: rgb(216, 216, 216); stroke-width: 5px; stroke-dasharray: 5; stroke: rgb(0, 0, 0);" x1="997.525" y1="256.126" x2="1816.241" y2="38.598"/>
        <polygon style="fill: none; stroke-dasharray: 5; stroke-width: 4px; stroke: rgb(0, 0, 0);" points="-329.26 108.266 993.825 259.14 988.225 1193.21 -316.66 993.17">
          <title>Front</title>
        </polygon>
        <circle style="fill: none; stroke: rgb(0, 0, 0);" transform="matrix(1, 0, 0, 1.00001, 374.745, -245.627)" cx="1439.26" cy="284.444" r="11.478">
          <title>point</title>
        </circle>
        <line style="fill: rgb(216, 216, 216); stroke: rgb(0, 0, 0);" x1="1816.63" y1="40.628" x2="985.717" y2="1192.404"/>
        <line style="fill: rgb(216, 216, 216); stroke: rgb(0, 0, 0);" x1="1813.991" y1="38.49" x2="-316.372" y2="989.856"/>
        <line style="fill: rgb(216, 216, 216); stroke: rgb(0, 0, 0);" x1="-140.38" y1="906.137" x2="-140.38" y2="-67.729"/>
      </g>
    </g>
    <g style="" transform="matrix(1, 0, 0, 1, -0.274015, 0)">
      <title>Room</title>
      <g style="">
        <title>Floor</title>
        <path d="M 512.933 615.251 L 1031.283 697.692 L 1031.283 981.257 C 1031.283 1007.767 1009.793 1029.257 983.283 1029.257 L 55.283 1029.257 C 28.773 1029.257 7.283 1007.767 7.283 981.257 L 7.283 837.928 Z" style="fill: url(&quot;#color-7&quot;);">
          <title>Floor</title>
        </path>
        <line style="fill: none; stroke: url(&quot;#color-6&quot;); stroke-width: 4px; stroke-linecap: round; stroke-miterlimit: 1.34; stroke-dasharray: 10.39;" x1="519.057" y1="615.836" x2="1031.84" y2="697.549"/>
        <line style="fill: none; stroke: url(&quot;#color-6&quot;); stroke-width: 4px; stroke-linecap: round; stroke-miterlimit: 1.34; stroke-dasharray: 10.39;" x1="380.005" y1="677.539" x2="1029.63" y2="792.192"/>
        <line style="fill: none; stroke: url(&quot;#color-6&quot;); stroke-width: 4px; stroke-linecap: round; stroke-miterlimit: 1.34; stroke-dasharray: 10.39;" x1="238.477" y1="742.587" x2="1032.449" y2="905.507"/>
        <line style="fill: none; stroke: url(&quot;#color-6&quot;); stroke-width: 4px; stroke-linecap: round; stroke-miterlimit: 1.34; stroke-dasharray: 10.39;" x1="64.789" y1="819.123" x2="966.435" y2="1031.426"/>
        <line style="fill: none; stroke: url(&quot;#color-6&quot;); stroke-width: 4px; stroke-linecap: round; stroke-miterlimit: 1.34; stroke-dasharray: 10.39;" x1="7.586" y1="949.339" x2="311.327" y2="1029.441"/>
        <line style="fill: none; stroke: url(&quot;#color-6&quot;); stroke-width: 4px; stroke-linecap: round; stroke-miterlimit: 1.34; stroke-dasharray: 10.39;" x1="422.085" y1="1036.001" x2="871.459" y2="672.166"/>
        <line style="fill: none; stroke: url(&quot;#color-6&quot;); stroke-width: 4px; stroke-linecap: round; stroke-miterlimit: 1.34; stroke-dasharray: 10.39;" x1="752.328" y1="1030.324" x2="1032.233" y2="736.153"/>
        <line style="fill: none; stroke: url(&quot;#color-6&quot;); stroke-width: 4px; stroke-linecap: round; stroke-miterlimit: 1.34; stroke-dasharray: 10.39;" x1="35.732" y1="1030.881" x2="686.692" y2="642.604"/>
        <line style="fill: none; stroke: url(&quot;#color-6&quot;); stroke-width: 4px; stroke-linecap: round; stroke-miterlimit: 1.34; stroke-dasharray: 10.39;" x1="516.309" y1="617.334" x2="7.047" y2="840.137"/>
      </g>
      <g style="">
        <title>Couchwall</title>
        <polyline style="fill: url(&quot;#color-4&quot;);" points="515.399 87.282 521.791 624.238 -293.869 966.867 -299.125 129.187">
          <title>Couchwall</title>
        </polyline>
        <line style="stroke-width: 6px; stroke-linecap: round; stroke-miterlimit: 1.34; stroke-dasharray: 10.39; fill: url(&quot;#color-4&quot;); stroke: url(&quot;#color-7&quot;);" x1="-1.715" y1="115.007" x2="518.522" y2="86.552"/>
        <line style="stroke-width: 6px; stroke-linecap: round; stroke-miterlimit: 1.34; stroke-dasharray: 10.39; fill: url(&quot;#color-4&quot;); stroke: url(&quot;#color-7&quot;);" x1="3.401" y1="597.993" x2="517.972" y2="458.201"/>
        <line style="stroke-width: 6px; stroke-linecap: round; stroke-miterlimit: 1.34; stroke-dasharray: 10.39; fill: url(&quot;#color-4&quot;); stroke: url(&quot;#color-7&quot;);" x1="-3.563" y1="330.698" x2="518.485" y2="267.557"/>
        <line style="stroke-width: 6px; stroke-linecap: round; stroke-miterlimit: 1.34; stroke-dasharray: 10.39; fill: url(&quot;#color-4&quot;); stroke: url(&quot;#color-7&quot;);" x1="518.289" y1="87.063" x2="518.009" y2="618.357"/>
        <line style="stroke-width: 6px; stroke-linecap: round; stroke-miterlimit: 1.34; stroke-dasharray: 10.39; fill: url(&quot;#color-4&quot;); stroke: url(&quot;#color-7&quot;);" x1="382.746" y1="94.886" x2="381.009" y2="675.657"/>
        <line style="stroke-width: 6px; stroke-linecap: round; stroke-miterlimit: 1.34; stroke-dasharray: 10.39; fill: url(&quot;#color-4&quot;); stroke: url(&quot;#color-7&quot;);" x1="237.009" y1="99.881" x2="237.009" y2="742.657"/>
        <line style="stroke-width: 6px; stroke-linecap: round; stroke-miterlimit: 1.34; stroke-dasharray: 10.39; fill: url(&quot;#color-4&quot;); stroke: url(&quot;#color-7&quot;);" x1="64.009" y1="108.214" x2="64.009" y2="819.857"/>
      </g>
      <g style="">
        <title>Mirrorwall</title>
        <polyline style="stroke-miterlimit: 9.29; stroke-linecap: square; fill: url(&quot;#color-5&quot;);" points="516.512 86.622 520.753 615.415 1444.017 763.873 1466.051 154.664">
          <title>mirrorwall</title>
        </polyline>
        <line style="stroke-width: 6px; stroke-linecap: round; stroke-miterlimit: 1.34; stroke-dasharray: 10.39; fill: url(&quot;#color-5&quot;); stroke: url(&quot;#color-4&quot;);" x1="517.535" y1="267.215" x2="1033.041" y2="318.439"/>
        <line style="stroke-width: 6px; stroke-linecap: round; stroke-miterlimit: 1.34; stroke-dasharray: 10.39; fill: url(&quot;#color-5&quot;); stroke: url(&quot;#color-4&quot;);" x1="518.571" y1="459.703" x2="1029.588" y2="529.344"/>
        <line style="stroke-width: 6px; stroke-linecap: round; stroke-miterlimit: 1.34; stroke-dasharray: 10.39; fill: url(&quot;#color-5&quot;); stroke: url(&quot;#color-4&quot;);" x1="686.733" y1="641.617" x2="695.694" y2="101.09"/>
        <line style="stroke-width: 6px; stroke-linecap: round; stroke-miterlimit: 1.34; stroke-dasharray: 10.39; fill: url(&quot;#color-5&quot;); stroke: url(&quot;#color-4&quot;);" x1="871.606" y1="671.77" x2="877.393" y2="114.384"/>
        <line style="stroke-width: 6px; stroke-linecap: round; stroke-miterlimit: 1.34; stroke-dasharray: 10.39; fill: url(&quot;#color-5&quot;); stroke: url(&quot;#color-4&quot;);" x1="518.661" y1="86.897" x2="1034.588" y2="126.152"/>
      </g>
    </g>
    <path style="stroke: url(&quot;#color-8&quot;); stroke-linecap: round; stroke-miterlimit: 1; stroke-width: 16px; stroke-dasharray: 0, 16.74; fill: url(&quot;#color-4&quot;);" d="M 867.299 422.264 C 919.96 434.748 931.152 366.016 932.705 310.458 C 933.821 270.568 929.229 198.848 872.759 201.434 C 837.386 203.053 820.767 242.511 817.599 298.834 C 815.166 342.077 815.763 410.047 867.299 422.264 Z">
      <title>Mirror</title>
    </path>
    <path style="fill: url(&quot;#color-6&quot;); stroke: url(&quot;#color-8&quot;); stroke-width: 8px; stroke-dasharray: 30.51; stroke-linecap: round; stroke-miterlimit: 1.2;" d="M 760.799 872.143 L 888.492 840.883 L 881.369 959.641 L 756.831 1000.058 L 760.799 872.143 Z M 665.354 787.435 L 665.197 899.818 L 756.852 1000.396 L 760.67 872.055 L 665.354 787.435 Z M 665.1099853515625 787.1859741210938 L 760.9439697265625 872.1959838867188 L 888.2789916992188 840.9130249023438 L 800.1400146484375 765.7169799804688 L 665.1099853515625 787.1859741210938 Z">
      <title>Poof</title>
    </path>
    <path style="stroke: url(&quot;#color-8&quot;); paint-order: fill; fill: url(&quot;#color-6&quot;); stroke-width: 8px; stroke-linecap: round; stroke-dasharray: 9.73; stroke-miterlimit: 1;" d="M 162.089 480.168 C 164.902 443.597 233.164 457.239 231.022 485.086 L 232.112 647.64 C 229.405 631.488 251.229 615.981 268.174 621.537 L 365.064 644.182 C 356.407 642.503 340.775 655.336 339.884 671.691 L 336.596 821.427 L 169.845 781.355 L 162.089 480.168 M 379.325 696.704 L 378.756 720.351 L 626.053 598.43 L 625.519 584.286 L 379.325 696.704 Z M 624.396 584.376 L 511.996 558.306 L 325.172 634.353 L 364.95 644.096 C 368.441 644.794 379.419 651.136 378.884 664.012 L 379.091 697.134 L 624.396 584.376 Z M 231.143 485.024 C 228.369 456.428 185.802 456.574 181.099 459.331 L 499.883 377.452 C 521.176 372.061 546.904 382.349 544.784 401.427 L 540.656 517.796 C 532.25 508.709 510.919 516.976 511.829 536.228 L 512.153 558.238 L 325.538 634.119 L 268.811 621.738 C 257.542 617.773 233.436 623.028 232.235 647.055 L 231.143 485.024 Z M 511.99 536.168 C 508.63 521.866 528.936 507.094 540.619 517.83 L 642.152 541.632 C 626.363 537.79 625.964 554.714 626.391 560.384 L 626.277 584.391 L 512.034 558.173 L 511.99 536.168 Z M 340.043 671.531 L 336.281 820.912 L 647.798 640.347 L 647.249 546.497 C 643.993 537.999 627.059 537.272 626.342 556.725 L 626.005 597.953 L 379.144 719.905 L 378.933 663.984 C 375.837 632.262 343.074 643.209 340.043 671.531 Z">
      <title>Couch</title>
    </path>
    <rect style="transform-origin: 7.009px 5.257px; fill: url(&quot;#color-3&quot;); visibility: hidden;" x="7.009" width="1024" height="1024" rx="48" ry="48" y="5.257">
      <title>RoundedBackground</title>
    </rect>
  </g>
  <rect style="stroke-width: 48px; transform-origin: -40.289px -22.557px; fill: none; stroke: rgb(255, 131, 0); visibility: hidden;" width="975" height="975" rx="48" ry="48" x="24" y="24">
    <title>RoundedFrame</title>
  </rect>
  <g style="visibility: hidden;" transform="matrix(1, 0, 0, 1, -48.278899, 162.70599)">
    <title>STEAM</title>
    <rect style="transform-origin: 48.279px -162.706px; fill: url(&quot;#color-4&quot;);" x="48.279" width="1024" height="1024" rx="48" ry="48" y="-162.71">
      <title>RoundedBackground</title>
    </rect>
    <path style="fill: rgb(216, 216, 216); visibility: hidden;" d="M 543.721 620.34 C 507.861 573.065 508.526 535.7 536.664 505.912 C 582.584 476.663 583.148 434.309 558.444 412.943 C 558.444 412.943 504.325 366.684 548.028 315.51 C 578.145 283.304 554.349 245.333 543.479 223.344 C 529.512 205.25 508.813 172.005 540.669 144.636 C 572.056 121.044 554.846 60.809 543.878 69.049">
      <title>VaporShape</title>
    </path>
    <path d="M 572.685 645.666 C 572.685 645.666 572.226 644.867 571.999 644.468 C 571.774 644.071 571.55 643.673 571.327 643.276 C 570.882 642.482 570.446 641.694 570.015 640.905 C 569.154 639.328 568.324 637.764 567.521 636.209 C 565.915 633.098 564.428 630.036 563.052 627.007 C 560.298 620.95 558.006 615.076 556.147 609.343 C 552.429 597.884 550.475 587.111 550.149 576.885 C 549.495 556.448 555.324 538.498 566.821 522.454 C 585.72 506.537 595.363 486.995 597.671 468.564 C 599.983 450.107 594.928 432.594 584.722 420.914 C 584.722 420.914 573.676 408.467 567.083 389.116 C 563.784 379.431 561.618 368.108 562.492 355.705 C 563.368 343.285 567.264 329.914 576.201 316.137 C 588.623 298.535 589.98 279.292 587.056 261.589 C 584.132 243.888 576.985 227.59 572.525 215.695 L 572.507 215.647 L 572.483 215.604 C 566.752 205.817 559.685 192.02 557.286 176.96 C 554.888 161.901 557.087 145.763 570.106 131.095 C 583.07 118.144 586.069 95.208 584.626 76.745 C 583.903 67.5 582.073 59.277 579.862 53.965 C 578.748 51.29 577.489 49.264 576.233 48.238 C 575.592 47.715 574.878 47.41 574.22 47.417 C 573.562 47.424 572.857 47.761 572.239 48.358 L 572.732 49.224 C 573.239 48.705 573.701 48.506 574.227 48.501 C 574.754 48.495 575.243 48.704 575.8 49.158 C 576.943 50.092 578.065 51.899 579.141 54.486 C 581.31 59.696 583.093 67.71 583.808 76.856 C 585.241 95.176 582.396 117.655 569.581 130.262 C 556.425 145.242 554.051 161.923 556.482 177.183 C 558.912 192.442 566.066 206.411 571.807 216.223 C 576.28 228.144 583.355 244.279 586.253 261.82 C 589.151 279.363 587.901 298.142 575.583 315.424 C 566.57 329.362 562.56 343.038 561.674 355.605 C 560.787 368.188 563.005 379.788 566.333 389.56 C 572.998 409.123 584.091 421.626 584.185 421.734 C 594.276 433.198 599.138 450.198 596.861 468.388 C 594.579 486.604 585.14 505.815 566.337 521.577 L 566.294 521.614 L 566.259 521.663 C 554.659 537.876 548.667 556.26 549.328 576.932 C 549.657 587.26 551.646 598.226 555.391 609.768 C 557.262 615.537 559.58 621.477 562.347 627.564 C 563.73 630.605 565.23 633.695 566.842 636.819 C 567.648 638.38 568.484 639.955 569.348 641.538 C 569.78 642.328 570.22 643.123 570.667 643.919 C 570.889 644.318 571.115 644.718 571.342 645.118 C 571.569 645.517 572.027 646.316 572.027 646.316 C 572.027 646.316 572.685 645.666 572.685 645.666 Z" style="stroke: rgb(186, 218, 85); stroke-miterlimit: 1; stroke-dasharray: 5; stroke-width: 23px; visibility: hidden;">
      <title>VaporStrokeStroke</title>
    </path>
    <path d="M 572.685 645.666 C 572.685 645.666 572.226 644.867 571.999 644.468 C 571.774 644.071 571.55 643.673 571.327 643.276 C 570.882 642.482 570.446 641.694 570.015 640.905 C 569.154 639.328 568.324 637.764 567.521 636.209 C 565.915 633.098 564.428 630.036 563.052 627.007 C 560.298 620.95 558.006 615.076 556.147 609.343 C 552.429 597.884 550.475 587.111 550.149 576.885 C 549.495 556.448 555.324 538.498 566.821 522.454 C 585.72 506.537 595.363 486.995 597.671 468.564 C 599.983 450.107 594.928 432.594 584.722 420.914 C 584.722 420.914 573.676 408.467 567.083 389.116 C 563.784 379.431 561.618 368.108 562.492 355.705 C 563.368 343.285 567.264 329.914 576.201 316.137 C 588.623 298.535 589.98 279.292 587.056 261.589 C 584.132 243.888 576.985 227.59 572.525 215.695 L 572.507 215.647 L 572.483 215.604 C 566.752 205.817 559.685 192.02 557.286 176.96 C 554.888 161.901 557.087 145.763 570.106 131.095 C 583.07 118.144 586.069 95.208 584.626 76.745 C 583.903 67.5 582.073 59.277 579.862 53.965 C 578.748 51.29 577.489 49.264 576.233 48.238 C 575.592 47.715 574.878 47.41 574.22 47.417 C 573.562 47.424 572.857 47.761 572.239 48.358 L 572.732 49.224 C 573.239 48.705 573.701 48.506 574.227 48.501 C 574.754 48.495 575.243 48.704 575.8 49.158 C 576.943 50.092 578.065 51.899 579.141 54.486 C 581.31 59.696 583.093 67.71 583.808 76.856 C 585.241 95.176 582.396 117.655 569.581 130.262 C 556.425 145.242 554.051 161.923 556.482 177.183 C 558.912 192.442 566.066 206.411 571.807 216.223 C 576.28 228.144 583.355 244.279 586.253 261.82 C 589.151 279.363 587.901 298.142 575.583 315.424 C 566.57 329.362 562.56 343.038 561.674 355.605 C 560.787 368.188 563.005 379.788 566.333 389.56 C 572.998 409.123 584.091 421.626 584.185 421.734 C 594.276 433.198 599.138 450.198 596.861 468.388 C 594.579 486.604 585.14 505.815 566.337 521.577 L 566.294 521.614 L 566.259 521.663 C 554.659 537.876 548.667 556.26 549.328 576.932 C 549.657 587.26 551.646 598.226 555.391 609.768 C 557.262 615.537 559.58 621.477 562.347 627.564 C 563.73 630.605 565.23 633.695 566.842 636.819 C 567.648 638.38 568.484 639.955 569.348 641.538 C 569.78 642.328 570.22 643.123 570.667 643.919 C 570.889 644.318 571.115 644.718 571.342 645.118 C 571.569 645.517 572.027 646.316 572.027 646.316 C 572.027 646.316 572.685 645.666 572.685 645.666 Z" style="stroke-miterlimit: 1; stroke-dasharray: 5; stroke-width: 23px; stroke: url(&quot;#color-5&quot;);"/>
    <path d="M 681.586 704.101 C 681.586 704.101 681.127 703.302 680.9 702.903 C 680.675 702.506 680.451 702.108 680.228 701.711 C 679.783 700.917 679.347 700.129 678.916 699.34 C 678.055 697.763 677.225 696.199 676.422 694.644 C 674.816 691.533 673.329 688.471 671.953 685.442 C 669.199 679.385 666.907 673.511 665.048 667.778 C 661.33 656.319 659.376 645.546 659.05 635.32 C 658.396 614.883 664.225 596.933 675.722 580.889 C 694.621 564.972 704.264 545.43 706.572 526.999 C 708.884 508.542 703.829 491.029 693.623 479.349 C 693.623 479.349 682.577 466.902 675.984 447.551 C 672.685 437.866 670.519 426.543 671.393 414.14 C 672.269 401.72 676.165 388.349 685.102 374.572 C 697.524 356.97 698.881 337.727 695.957 320.024 C 693.033 302.323 685.886 286.025 681.426 274.13 L 681.408 274.082 L 681.384 274.039 C 675.653 264.252 668.586 250.455 666.187 235.395 C 663.789 220.336 665.988 204.198 679.007 189.53 C 691.971 176.579 694.97 153.643 693.527 135.18 C 692.804 125.935 690.974 117.712 688.763 112.4 C 687.649 109.725 686.39 107.699 685.134 106.673 C 684.493 106.15 683.779 105.845 683.121 105.852 C 682.463 105.859 681.758 106.196 681.14 106.793 L 681.633 107.659 C 682.14 107.14 682.602 106.941 683.128 106.936 C 683.655 106.93 684.144 107.139 684.701 107.593 C 685.844 108.527 686.966 110.334 688.042 112.921 C 690.211 118.131 691.994 126.145 692.709 135.291 C 694.142 153.611 691.297 176.09 678.482 188.697 C 665.326 203.677 662.952 220.358 665.383 235.618 C 667.813 250.877 674.967 264.846 680.708 274.658 C 685.181 286.579 692.256 302.714 695.154 320.255 C 698.052 337.798 696.802 356.577 684.484 373.859 C 675.471 387.797 671.461 401.473 670.575 414.04 C 669.688 426.623 671.906 438.223 675.234 447.995 C 681.899 467.558 692.992 480.061 693.086 480.169 C 703.177 491.633 708.039 508.633 705.762 526.823 C 703.48 545.039 694.041 564.25 675.238 580.012 L 675.195 580.049 L 675.16 580.098 C 663.56 596.311 657.568 614.695 658.229 635.367 C 658.558 645.695 660.547 656.661 664.292 668.203 C 666.163 673.972 668.481 679.912 671.248 685.999 C 672.631 689.04 674.131 692.13 675.743 695.254 C 676.549 696.815 677.385 698.39 678.249 699.973 C 678.681 700.763 679.121 701.558 679.568 702.354 C 679.79 702.753 680.016 703.153 680.243 703.553 C 680.47 703.952 680.928 704.751 680.928 704.751 C 680.928 704.751 681.586 704.101 681.586 704.101 Z" style="stroke-miterlimit: 1; stroke-dasharray: 5; stroke-width: 23px; stroke: url(&quot;#color-5&quot;);"/>
    <path d="M 463.785 631.5 C 463.785 631.5 463.326 630.701 463.099 630.302 C 462.874 629.905 462.65 629.507 462.427 629.11 C 461.982 628.316 461.546 627.528 461.115 626.739 C 460.254 625.162 459.424 623.598 458.621 622.043 C 457.015 618.932 455.528 615.87 454.152 612.841 C 451.398 606.784 449.106 600.91 447.247 595.177 C 443.529 583.718 441.575 572.945 441.249 562.719 C 440.595 542.282 446.424 524.332 457.921 508.288 C 476.82 492.371 486.463 472.829 488.771 454.398 C 491.083 435.941 486.028 418.428 475.822 406.748 C 475.822 406.748 464.776 394.301 458.183 374.95 C 454.884 365.265 452.718 353.942 453.592 341.539 C 454.468 329.119 458.364 315.748 467.301 301.971 C 479.723 284.369 481.08 265.126 478.156 247.423 C 475.232 229.722 468.085 213.424 463.625 201.529 L 463.607 201.481 L 463.583 201.438 C 457.852 191.651 450.785 177.854 448.386 162.794 C 445.988 147.735 448.187 131.597 461.206 116.929 C 474.17 103.978 477.169 81.042 475.726 62.579 C 475.003 53.334 473.173 45.111 470.962 39.799 C 469.848 37.124 468.589 35.098 467.333 34.072 C 466.692 33.549 465.978 33.244 465.32 33.251 C 464.662 33.258 463.957 33.595 463.339 34.192 L 463.832 35.058 C 464.339 34.539 464.801 34.34 465.327 34.335 C 465.854 34.329 466.343 34.538 466.9 34.992 C 468.043 35.926 469.165 37.733 470.241 40.32 C 472.41 45.53 474.193 53.544 474.908 62.69 C 476.341 81.01 473.496 103.489 460.681 116.096 C 447.525 131.076 445.151 147.757 447.582 163.017 C 450.012 178.276 457.166 192.245 462.907 202.057 C 467.38 213.978 474.455 230.113 477.353 247.654 C 480.251 265.197 479.001 283.976 466.683 301.258 C 457.67 315.196 453.66 328.872 452.774 341.439 C 451.887 354.022 454.105 365.622 457.433 375.394 C 464.098 394.957 475.191 407.46 475.285 407.568 C 485.376 419.032 490.238 436.032 487.961 454.222 C 485.679 472.438 476.24 491.649 457.437 507.411 L 457.394 507.448 L 457.359 507.497 C 445.759 523.71 439.767 542.094 440.428 562.766 C 440.757 573.094 442.746 584.06 446.491 595.602 C 448.362 601.371 450.68 607.311 453.447 613.398 C 454.83 616.439 456.33 619.529 457.942 622.653 C 458.748 624.214 459.584 625.789 460.448 627.372 C 460.88 628.162 461.32 628.957 461.767 629.753 C 461.989 630.152 462.215 630.552 462.442 630.952 C 462.669 631.351 463.127 632.15 463.127 632.15 C 463.127 632.15 463.785 631.5 463.785 631.5 Z" style="stroke-miterlimit: 1; stroke-dasharray: 5; stroke-width: 23px; stroke: url(&quot;#color-5&quot;);"/>
    <path d="M 816.163 673.998 C 816.163 673.998 815.704 673.199 815.477 672.8 C 815.252 672.403 815.028 672.005 814.805 671.608 C 814.36 670.814 813.924 670.026 813.493 669.237 C 812.632 667.66 811.802 666.096 810.999 664.541 C 809.393 661.43 807.906 658.368 806.53 655.339 C 803.776 649.282 801.484 643.408 799.625 637.675 C 795.907 626.216 793.953 615.443 793.627 605.217 C 792.973 584.78 798.802 566.83 810.299 550.786 C 829.198 534.869 838.841 515.327 841.149 496.896 C 843.461 478.439 838.406 460.926 828.2 449.246 C 828.2 449.246 817.154 436.799 810.561 417.448 C 807.262 407.763 805.096 396.44 805.97 384.037 C 806.846 371.617 810.742 358.246 819.679 344.469 C 832.101 326.867 833.458 307.624 830.534 289.921 C 827.61 272.22 820.463 255.922 816.003 244.027 L 815.985 243.979 L 815.961 243.936 C 810.23 234.149 803.163 220.352 800.764 205.292 C 798.366 190.233 800.565 174.095 813.584 159.427 C 826.548 146.476 829.547 123.54 828.104 105.077 C 827.381 95.832 825.551 87.609 823.34 82.297 C 822.226 79.622 820.967 77.596 819.711 76.57 C 819.07 76.047 818.356 75.742 817.698 75.749 C 817.04 75.756 816.335 76.093 815.717 76.69 L 816.21 77.556 C 816.717 77.037 817.179 76.838 817.705 76.833 C 818.232 76.827 818.721 77.036 819.278 77.49 C 820.421 78.424 821.543 80.231 822.619 82.818 C 824.788 88.028 826.571 96.042 827.286 105.188 C 828.719 123.508 825.874 145.987 813.059 158.594 C 799.903 173.574 797.529 190.255 799.96 205.515 C 802.39 220.774 809.544 234.743 815.285 244.555 C 819.758 256.476 826.833 272.611 829.731 290.152 C 832.629 307.695 831.379 326.474 819.061 343.756 C 810.048 357.694 806.038 371.37 805.152 383.937 C 804.265 396.52 806.483 408.12 809.811 417.892 C 816.476 437.455 827.569 449.958 827.663 450.066 C 837.754 461.53 842.616 478.53 840.339 496.72 C 838.057 514.936 828.618 534.147 809.815 549.909 L 809.772 549.946 L 809.737 549.995 C 798.137 566.208 792.145 584.592 792.806 605.264 C 793.135 615.592 795.124 626.558 798.869 638.1 C 800.74 643.869 803.058 649.809 805.825 655.896 C 807.208 658.937 808.708 662.027 810.32 665.151 C 811.126 666.712 811.962 668.287 812.826 669.87 C 813.258 670.66 813.698 671.455 814.145 672.251 C 814.367 672.65 814.593 673.05 814.82 673.45 C 815.047 673.849 815.505 674.648 815.505 674.648 C 815.505 674.648 816.163 673.998 816.163 673.998 Z" style="stroke-miterlimit: 1; stroke-dasharray: 5; stroke-width: 23px; stroke: url(&quot;#color-5&quot;);"/>
    <path d="M 269.001 695.248 C 269.001 695.248 268.542 694.449 268.315 694.05 C 268.09 693.653 267.866 693.255 267.643 692.858 C 267.198 692.064 266.762 691.276 266.331 690.487 C 265.47 688.91 264.64 687.346 263.837 685.791 C 262.231 682.68 260.744 679.618 259.368 676.589 C 256.614 670.532 254.322 664.658 252.463 658.925 C 248.745 647.466 246.791 636.693 246.465 626.467 C 245.811 606.03 251.64 588.08 263.137 572.036 C 282.036 556.119 291.679 536.577 293.987 518.146 C 296.299 499.689 291.244 482.176 281.038 470.496 C 281.038 470.496 269.992 458.049 263.399 438.698 C 260.1 429.013 257.934 417.69 258.808 405.287 C 259.684 392.867 263.58 379.496 272.517 365.719 C 284.939 348.117 286.296 328.874 283.372 311.171 C 280.448 293.47 273.301 277.172 268.841 265.277 L 268.823 265.229 L 268.799 265.186 C 263.068 255.399 256.001 241.602 253.602 226.542 C 251.204 211.483 253.403 195.345 266.422 180.677 C 279.386 167.726 282.385 144.79 280.942 126.327 C 280.219 117.082 278.389 108.859 276.178 103.547 C 275.064 100.872 273.805 98.846 272.549 97.82 C 271.908 97.297 271.194 96.992 270.536 96.999 C 269.878 97.006 269.173 97.343 268.555 97.94 L 269.048 98.806 C 269.555 98.287 270.017 98.088 270.543 98.083 C 271.07 98.077 271.559 98.286 272.116 98.74 C 273.259 99.674 274.381 101.481 275.457 104.068 C 277.626 109.278 279.409 117.292 280.124 126.438 C 281.557 144.758 278.712 167.237 265.897 179.844 C 252.741 194.824 250.367 211.505 252.798 226.765 C 255.228 242.024 262.382 255.993 268.123 265.805 C 272.596 277.726 279.671 293.861 282.569 311.402 C 285.467 328.945 284.217 347.724 271.899 365.006 C 262.886 378.944 258.876 392.62 257.99 405.187 C 257.103 417.77 259.321 429.37 262.649 439.142 C 269.314 458.705 280.407 471.208 280.501 471.316 C 290.592 482.78 295.454 499.78 293.177 517.97 C 290.895 536.186 281.456 555.397 262.653 571.159 L 262.61 571.196 L 262.575 571.245 C 250.975 587.458 244.983 605.842 245.644 626.514 C 245.973 636.842 247.962 647.808 251.707 659.35 C 253.578 665.119 255.896 671.059 258.663 677.146 C 260.046 680.187 261.546 683.277 263.158 686.401 C 263.964 687.962 264.8 689.537 265.664 691.12 C 266.096 691.91 266.536 692.705 266.983 693.501 C 267.205 693.9 267.431 694.3 267.658 694.7 C 267.885 695.099 268.343 695.898 268.343 695.898 C 268.343 695.898 269.001 695.248 269.001 695.248 Z" style="stroke-miterlimit: 1; stroke-dasharray: 5; stroke-width: 23px; stroke: url(&quot;#color-5&quot;);"/>
    <path d="M 354.882 719.153 C 354.882 719.153 354.423 718.354 354.196 717.955 C 353.971 717.558 353.747 717.16 353.524 716.763 C 353.079 715.969 352.643 715.181 352.212 714.392 C 351.351 712.815 350.521 711.251 349.718 709.696 C 348.112 706.585 346.625 703.523 345.249 700.494 C 342.495 694.437 340.203 688.563 338.344 682.83 C 334.626 671.371 332.672 660.598 332.346 650.372 C 331.692 629.935 337.521 611.985 349.018 595.941 C 367.917 580.024 377.56 560.482 379.868 542.051 C 382.18 523.594 377.125 506.081 366.919 494.401 C 366.919 494.401 355.873 481.954 349.28 462.603 C 345.981 452.918 343.815 441.595 344.689 429.192 C 345.565 416.772 349.461 403.401 358.398 389.624 C 370.82 372.022 372.177 352.779 369.253 335.076 C 366.329 317.375 359.182 301.077 354.722 289.182 L 354.704 289.134 L 354.68 289.091 C 348.949 279.304 341.882 265.507 339.483 250.447 C 337.085 235.388 339.284 219.25 352.303 204.582 C 365.267 191.631 368.266 168.695 366.823 150.232 C 366.1 140.987 364.27 132.764 362.059 127.452 C 360.945 124.777 359.686 122.751 358.43 121.725 C 357.789 121.202 357.075 120.897 356.417 120.904 C 355.759 120.911 355.054 121.248 354.436 121.845 L 354.929 122.711 C 355.436 122.192 355.898 121.993 356.424 121.988 C 356.951 121.982 357.44 122.191 357.997 122.645 C 359.14 123.579 360.262 125.386 361.338 127.973 C 363.507 133.183 365.29 141.197 366.005 150.343 C 367.438 168.663 364.593 191.142 351.778 203.749 C 338.622 218.729 336.248 235.41 338.679 250.67 C 341.109 265.929 348.263 279.898 354.004 289.71 C 358.477 301.631 365.552 317.766 368.45 335.307 C 371.348 352.85 370.098 371.629 357.78 388.911 C 348.767 402.849 344.757 416.525 343.871 429.092 C 342.984 441.675 345.202 453.275 348.53 463.047 C 355.195 482.61 366.288 495.113 366.382 495.221 C 376.473 506.685 381.335 523.685 379.058 541.875 C 376.776 560.091 367.337 579.302 348.534 595.064 L 348.491 595.101 L 348.456 595.15 C 336.856 611.363 330.864 629.747 331.525 650.419 C 331.854 660.747 333.843 671.713 337.588 683.255 C 339.459 689.024 341.777 694.964 344.544 701.051 C 345.927 704.092 347.427 707.182 349.039 710.306 C 349.845 711.867 350.681 713.442 351.545 715.025 C 351.977 715.815 352.417 716.61 352.864 717.406 C 353.086 717.805 353.312 718.205 353.539 718.605 C 353.766 719.004 354.224 719.803 354.224 719.803 C 354.224 719.803 354.882 719.153 354.882 719.153 Z" style="stroke-miterlimit: 1; stroke-dasharray: 5; stroke-width: 23px; stroke: url(&quot;#color-5&quot;);"/>
  </g>
  <g style="" transform="matrix(1, 0, 0, 1, -48.278899, 162.70599)">
    <title>HORIZON</title>
    <rect style="transform-origin: 48.279px -162.706px; fill: url(&quot;#color-4&quot;);" x="48.279" width="1024" height="1024" rx="48" ry="48" y="-162.71">
      <title>RoundedBackground</title>
    </rect>
    <path style="fill: rgb(216, 216, 216); visibility: hidden;" d="M 306.883 32.329 C 550.55 -48.803 561.072 657.42 749.62 654.824 C 876.728 653.074 946.555 47.671 817.634 30.81 C 579.358 -0.353 582.169 651.138 367.204 652.725 C 286.88 655.38 177.122 75.861 306.883 32.329 Z"/>
    <path d="M 229.219 52.694 C 271.61 42.073 308.483 45.843 340.939 60.217 C 373.38 74.584 401.582 99.564 426.841 131.233 C 477.094 194.24 515.987 283.977 554.465 370.329 C 592.09 289.774 628.974 206.302 676.461 144.822 C 700.336 113.913 726.947 88.51 757.666 71.862 C 788.393 55.207 823.389 47.281 863.842 51.25 C 884.021 53.28 900.426 63.98 913.121 81.071 C 925.799 98.139 934.96 121.673 940.926 149.408 C 952.853 204.861 952.091 277.346 941.388 349.35 C 930.684 421.352 910.029 492.95 882.183 546.629 C 868.256 573.475 852.497 595.89 835.291 611.622 C 818.063 627.371 799.195 636.489 779.298 636.732 C 727.371 637.197 686.16 605.253 650.48 556.088 C 615.036 507.251 584.817 441.344 554.436 373.207 C 523.043 440.334 491.016 505.324 451.785 553.708 C 412.289 602.417 365.282 634.364 304.343 634.766 C 291.664 635.023 278.353 626.713 265.344 611.971 C 252.357 597.257 239.448 576.043 227.293 550.433 C 202.989 499.226 181.62 430.28 168.414 360.008 C 155.207 289.736 150.154 218.074 158.485 161.446 C 162.65 133.124 170.18 108.509 181.708 89.723 C 193.249 70.918 208.942 57.856 229.219 52.694 Z M 182.836 90.116 C 171.362 108.815 163.877 133.282 159.72 161.549 C 151.4 218.101 156.445 289.646 169.643 359.877 C 182.84 430.108 204.184 498.96 228.46 550.117 C 240.598 575.689 253.445 596.797 266.378 611.453 C 279.29 626.083 292.051 634.194 304.312 633.829 C 364.842 633.552 411.322 601.815 450.727 553.218 C 490.145 504.603 522.236 439.285 553.794 371.765 C 515.149 285.06 476.208 194.947 425.777 131.716 C 400.57 100.112 372.575 75.313 340.311 61.024 C 308.062 46.742 271.723 42.981 229.611 53.582 C 209.597 58.615 194.298 71.438 182.836 90.116 Z M 651.569 555.638 C 687.172 604.693 727.807 636.403 779.281 635.795 C 798.85 635.627 817.225 626.666 834.333 611.026 C 851.46 595.366 867.126 573.084 881.027 546.287 C 908.837 492.676 929.457 421.2 940.153 349.245 C 950.848 277.29 951.612 204.933 939.699 149.558 C 933.747 121.881 924.647 98.505 912.037 81.529 C 899.444 64.576 883.533 54.098 863.682 52.18 C 823.488 48.194 788.955 56.057 758.39 72.622 C 727.813 89.195 701.366 114.441 677.534 145.294 C 629.857 207.016 592.943 290.813 555.108 371.772 C 585.657 440.309 615.953 506.562 651.569 555.638 Z" style="stroke: url(&quot;#color-5&quot;); stroke-width: 33px;"/>
  </g>
</svg>