<?xml version="1.0" encoding="utf-8"?>
<svg xmlns="http://www.w3.org/2000/svg" viewBox="0 0 1024 1024" xmlns:bx="https://boxy-svg.com">
  <defs>
    <bx:grid x="0" y="0" width="64" height="64"/>
    <linearGradient id="color-0" gradientUnits="userSpaceOnUse" bx:pinned="true">
      <title>StageCol</title>
      <stop style="stop-color: rgb(0, 165, 255);"/>
    </linearGradient>
    <linearGradient id="color-1" bx:pinned="true" gradientUnits="userSpaceOnUse">
      <title>LocalCol</title>
      <stop style="stop-color: rgb(255, 166, 0);"/>
    </linearGradient>
    <linearGradient id="color-2" bx:pinned="true" gradientUnits="userSpaceOnUse" gradientTransform="matrix(8, 0, 0, 8, 0, 0)">
      <title>LocalStageCol</title>
      <stop style="stop-color: rgb(168, 0, 255);"/>
    </linearGradient>
    <bx:export>
      <bx:file format="png" path="coarse_location.png">
        <bx:variant scale="0.5" suffix="@512px"/>
        <bx:variant scale="0.25" suffix="@256px"/>
        <bx:variant scale="0.125" suffix="@128px"/>
      </bx:file>
    </bx:export>
    <linearGradient id="color-3" bx:pinned="true" gradientUnits="userSpaceOnUse" gradientTransform="matrix(1, 0, 0, 1, -7.009, -5.257)">
      <title>Background</title>
      <stop style="stop-color: rgb(0, 216, 33);"/>
    </linearGradient>
    <linearGradient id="color-4" bx:pinned="true" gradientUnits="userSpaceOnUse" gradientTransform="matrix(1, 0, 0, 1, 0, -0.000017)">
      <title>MiddleGrey</title>
      <stop style="stop-color: rgb(128, 128, 128);"/>
    </linearGradient>
    <linearGradient id="color-5" gradientUnits="userSpaceOnUse" bx:pinned="true">
      <title>LightGrey</title>
      <stop style="stop-color: rgb(195, 195, 195);"/>
    </linearGradient>
  </defs>
  <g style="visibility: hidden;">
    <title>Sources</title>
    <rect style="fill: url(&quot;#color-3&quot;); transform-origin: 0px 0px;" x="0" y="0" width="1024" height="1024" rx="0" ry="0">
      <title>ContrastBackground</title>
    </rect>
    <g style="pointer-events: none; visibility: hidden;" transform="matrix(6.400423, 0, 0, 6.400423, 517.455033, 40.877614)">
      <title>LayoutBits</title>
      <path style="fill: rgb(216, 216, 216); stroke: rgb(0, 0, 0);" d="M 63.658 29.588 C 81.426 30.144 79.23 41.274 79.23 49.06 C 79.23 64.633 63.512 88.116 63.658 87.991 C 63.842 88.543 48.086 64.633 48.086 49.06 C 48.086 41.274 45.89 29.033 63.658 29.588 Z M 73.595 49.06 C 73.595 54.548 69.146 58.997 63.658 58.997 C 58.17 58.997 53.721 54.548 53.721 49.06 C 53.721 43.572 58.17 39.123 63.658 39.123 C 69.146 39.123 73.595 43.572 73.595 49.06 Z">
        <title>Location</title>
      </path>
      <path style="fill: rgb(216, 216, 216); stroke: rgb(0, 0, 0);" d="M 38.29 67.778 C 49.308 68.123 47.947 75.024 47.947 79.853 C 47.947 89.509 38.2 104.071 38.29 103.994 C 38.404 104.336 28.634 89.509 28.634 79.853 C 28.634 75.024 27.272 67.434 38.29 67.778 Z M 44.452 79.853 C 44.452 83.256 41.693 86.014 38.29 86.014 C 34.887 86.014 32.128 83.256 32.128 79.853 C 32.128 76.449 34.887 73.691 38.29 73.691 C 41.693 73.691 44.452 76.449 44.452 79.853 Z">
        <title>LocationSmall</title>
      </path>
      <path style="fill: rgb(216, 216, 216); stroke: rgb(0, 0, 0);" d="M 63.827 16.031 C 93.892 16.973 90.175 35.805 90.175 48.981 C 90.175 75.331 63.58 115.066 63.827 114.854 C 64.138 115.789 37.477 75.331 37.477 48.981 C 37.477 35.805 33.762 15.093 63.827 16.031 Z M 80.641 48.981 C 80.641 58.266 73.113 65.794 63.827 65.794 C 54.541 65.794 47.012 58.266 47.012 48.981 C 47.012 39.694 54.541 32.166 63.827 32.166 C 73.113 32.166 80.641 39.694 80.641 48.981 Z">
        <title>LocationBigPin</title>
      </path>
      <path style="fill: rgb(53, 216, 0);" d="M 7.5 0 H 1016.5 A 7.5 7.5 0 0 1 1024 7.5 V 1016.5 A 7.5 7.5 0 0 1 1016.5 1024 H 7.25 A 7.25 7.25 0 0 1 0 1016.75 V 7.5 A 7.5 7.5 0 0 1 7.5 0 Z" bx:shape="rect 0 0 1024 1024 7.5 7.5 7.5 7.25 1@3e8bf5e9">
        <title>RoundedBackground</title>
      </path>
    </g>
  </g>
  <g style="" transform="matrix(1, 0, 0, 1, -7.0091, -5.25688)">
    <title>FINE_LOCATION</title>
    <rect style="transform-origin: 7.009px 5.257px; fill: url(&quot;#color-3&quot;); visibility: hidden;" x="7.009" width="1024" height="1024" rx="48" ry="48" y="5.257">
      <title>RoundedBackground</title>
    </rect>
    <path d="M 983.009 5.257 C 1009.52 5.257 1031.01 26.747 1031.01 53.257 L 1031.01 502.949 C 945.638 522.208 861.297 541.258 789.913 557.427 C 751.738 566.074 734.412 570.426 720.465 567.328 C 706.808 564.295 696.445 554.22 672.337 529.919 C 502.034 358.259 243.237 101.553 146.119 5.257 Z M 55.009 1029.26 C 28.499 1029.26 7.009 1007.77 7.009 981.257 L 7.009 938.683 C 137.352 906.32 341.699 855.68 477.109 822.622 C 570.732 799.285 567.883 798.242 616.887 859.014 C 659.046 910.245 709.183 970.56 758.171 1029.26 Z M 919.339 774.155 C 904.688 759.51 893.933 748.802 887.133 740.554 C 880.65 732.691 879.246 730.431 879.858 728.063 C 880.46 725.738 882.608 724.631 892.046 721.213 C 901.984 717.615 916.61 713.953 936.703 708.94 C 964.398 702.03 997.361 693.842 1031.01 685.501 L 1031.01 885.671 C 991.557 846.298 951.592 806.395 919.339 774.155 Z M 149.574 294.115 C 148.514 311.359 149.849 325.396 149.849 339.705 C 149.849 391.966 176.231 458.129 201.917 509.652 C 214.786 535.465 227.677 558.07 237.192 573.852 C 241.968 581.774 245.963 588.092 248.692 592.261 C 250.073 594.372 251.199 596.034 251.935 597.074 C 252.333 597.635 252.766 598.216 253.056 598.567 C 253.307 598.87 254.181 599.788 254.956 600.304 C 255.514 600.674 257.397 601.505 258.708 601.62 C 259.825 601.718 262.451 601.184 263.658 600.429 C 264.645 599.81 265.915 598.263 266.573 597.121 C 266.484 597.298 266.396 597.459 266.375 597.496 C 266.374 597.498 266.383 597.483 266.47 597.343 C 266.664 597.031 266.974 596.542 267.411 595.853 C 268.286 594.474 269.612 592.388 271.306 589.686 C 274.68 584.301 279.56 576.393 285.321 566.617 C 296.811 547.121 308.232 526.59 320.809 500.869 C 356.774 544.253 384.325 577.447 399.466 595.58 C 409.919 608.097 417.372 617.093 421.606 624.064 C 425.481 630.443 425.934 631.095 424.616 633.281 C 420.574 639.987 402.63 644.201 359.904 654.553 C 315.736 665.255 127.392 706.623 7.009 732.96 L 7.009 121.831 C 37.511 158.702 87.443 219.053 149.574 294.115 Z M 370.728 186.057 L 384.628 191.957 C 393.161 183.757 399.411 176.29 403.378 169.557 C 407.345 162.824 409.328 155.99 409.328 149.057 C 409.328 142.124 407.395 136.524 403.528 132.257 C 399.661 127.99 394.511 125.857 388.078 125.857 C 381.645 125.857 376.128 128.024 371.528 132.357 C 366.928 136.69 364.628 141.824 364.628 147.757 C 364.628 153.69 366.245 158.457 369.478 162.057 C 372.711 165.657 376.761 167.457 381.628 167.457 C 386.495 167.457 390.928 165.857 394.928 162.657 C 391.395 170.057 383.328 177.857 370.728 186.057 Z M 379.328 154.007 C 377.595 151.907 376.728 149.34 376.728 146.307 C 376.728 143.274 377.628 140.824 379.428 138.957 C 381.228 137.09 383.678 136.157 386.778 136.157 C 389.878 136.157 392.461 137.44 394.528 140.007 C 396.595 142.574 397.628 145.99 397.628 150.257 C 397.628 151.057 397.561 152.19 397.428 153.657 C 394.095 155.99 390.261 157.157 385.928 157.157 C 383.261 157.157 381.061 156.107 379.328 154.007 Z M 420.613 186.057 L 434.513 191.957 C 443.046 183.757 449.296 176.29 453.263 169.557 C 457.23 162.824 459.213 155.99 459.213 149.057 C 459.213 142.124 457.28 136.524 453.413 132.257 C 449.546 127.99 444.396 125.857 437.963 125.857 C 431.53 125.857 426.013 128.024 421.413 132.357 C 416.813 136.69 414.513 141.824 414.513 147.757 C 414.513 153.69 416.13 158.457 419.363 162.057 C 422.596 165.657 426.646 167.457 431.513 167.457 C 436.38 167.457 440.813 165.857 444.813 162.657 C 441.28 170.057 433.213 177.857 420.613 186.057 Z M 429.213 154.007 C 427.48 151.907 426.613 149.34 426.613 146.307 C 426.613 143.274 427.513 140.824 429.313 138.957 C 431.113 137.09 433.563 136.157 436.663 136.157 C 439.763 136.157 442.346 137.44 444.413 140.007 C 446.48 142.574 447.513 145.99 447.513 150.257 C 447.513 151.057 447.446 152.19 447.313 153.657 C 443.98 155.99 440.146 157.157 435.813 157.157 C 433.146 157.157 430.946 156.107 429.213 154.007 Z M 470.513 186.057 L 484.413 191.957 C 492.946 183.757 499.196 176.29 503.163 169.557 C 507.13 162.824 509.113 155.99 509.113 149.057 C 509.113 142.124 507.18 136.524 503.313 132.257 C 499.446 127.99 494.296 125.857 487.863 125.857 C 481.43 125.857 475.913 128.024 471.313 132.357 C 466.713 136.69 464.413 141.824 464.413 147.757 C 464.413 153.69 466.03 158.457 469.263 162.057 C 472.496 165.657 476.546 167.457 481.413 167.457 C 486.28 167.457 490.713 165.857 494.713 162.657 C 491.18 170.057 483.113 177.857 470.513 186.057 Z M 479.113 154.007 C 477.38 151.907 476.513 149.34 476.513 146.307 C 476.513 143.274 477.413 140.824 479.213 138.957 C 481.013 137.09 483.463 136.157 486.563 136.157 C 489.663 136.157 492.246 137.44 494.313 140.007 C 496.38 142.574 497.413 145.99 497.413 150.257 C 497.413 151.057 497.346 152.19 497.213 153.657 C 493.88 155.99 490.046 157.157 485.713 157.157 C 483.046 157.157 480.846 156.107 479.113 154.007 Z M 525.412 175.457 L 515.612 179.357 C 517.345 182.557 518.212 185.19 518.212 187.257 C 518.212 190.59 516.245 194.557 512.312 199.157 L 516.412 202.157 C 524.679 195.824 528.812 189.824 528.812 184.157 C 528.812 181.224 527.679 178.324 525.412 175.457 Z M 589.111 190.857 L 590.211 179.457 L 569.711 181.057 L 569.011 164.857 L 570.411 121.357 L 556.211 123.857 L 557.411 166.557 L 556.211 190.857 Z M 604.006 169.357 L 629.006 167.057 L 631.006 164.957 C 632.006 161.224 632.506 157.89 632.506 154.957 C 632.506 150.024 631.156 146.19 628.456 143.457 C 625.756 140.724 621.973 139.357 617.106 139.357 C 610.773 139.357 605.239 142.424 600.506 148.557 C 595.773 154.69 593.406 161.824 593.406 169.957 C 593.406 176.424 595.106 181.707 598.506 185.807 C 601.906 189.907 606.306 191.957 611.706 191.957 C 614.239 191.957 616.689 191.54 619.056 190.707 C 621.423 189.874 623.323 188.94 624.756 187.907 C 626.189 186.874 627.606 185.624 629.006 184.157 C 630.406 182.69 631.439 181.39 632.106 180.257 L 627.506 174.657 L 625.706 176.157 C 624.506 177.157 622.839 178.157 620.706 179.157 C 618.573 180.157 616.539 180.657 614.606 180.657 C 608.673 180.657 605.139 176.89 604.006 169.357 Z M 621.006 156.357 C 621.006 157.357 620.906 158.624 620.706 160.157 L 603.706 162.257 C 604.039 158.59 605.206 155.574 607.206 153.207 C 609.206 150.84 611.673 149.657 614.606 149.657 C 618.873 149.657 621.006 151.89 621.006 156.357 Z M 650.057 179.557 C 647.89 178.224 646.44 177.157 645.707 176.357 C 644.974 175.557 644.407 174.89 644.007 174.357 L 636.107 183.557 L 637.907 185.657 C 639.107 187.057 641.09 188.457 643.857 189.857 C 646.624 191.257 649.607 191.957 652.807 191.957 C 657.807 191.957 662.224 190.19 666.057 186.657 C 669.89 183.124 671.807 179.024 671.807 174.357 C 671.807 171.09 670.657 168.274 668.357 165.907 C 666.057 163.54 663.54 161.84 660.807 160.807 C 658.074 159.774 655.557 158.64 653.257 157.407 C 650.957 156.174 649.807 154.94 649.807 153.707 C 649.807 152.474 650.224 151.507 651.057 150.807 C 651.89 150.107 653.09 149.757 654.657 149.757 C 656.224 149.757 658.024 150.24 660.057 151.207 C 662.09 152.174 663.474 152.957 664.207 153.557 C 664.94 154.157 665.54 154.657 666.007 155.057 L 672.707 142.857 C 670.574 141.657 668.357 140.774 666.057 140.207 C 663.757 139.64 661.407 139.357 659.007 139.357 C 653.874 139.357 649.34 141.024 645.407 144.357 C 641.474 147.69 639.507 151.59 639.507 156.057 C 639.507 158.724 640.257 161.09 641.757 163.157 C 643.257 165.224 645.09 166.84 647.257 168.007 C 649.424 169.174 651.59 170.224 653.757 171.157 C 655.924 172.09 657.757 173.024 659.257 173.957 C 660.757 174.89 661.507 175.89 661.507 176.957 C 661.507 180.024 659.774 181.557 656.307 181.557 C 654.307 181.557 652.224 180.89 650.057 179.557 Z M 700.706 142.607 C 698.439 144.107 696.773 145.457 695.706 146.657 C 694.639 147.857 693.739 148.99 693.006 150.057 L 693.006 139.257 L 694.306 113.457 L 680.606 115.957 L 681.806 166.557 L 680.806 189.257 C 688.673 190.324 694.273 190.857 697.606 190.857 C 704.873 190.857 710.789 188.074 715.356 182.507 C 719.923 176.94 722.206 169.79 722.206 161.057 C 722.206 154.99 720.806 150.024 718.006 146.157 C 715.206 142.29 711.573 140.357 707.106 140.357 C 705.106 140.357 702.973 141.107 700.706 142.607 Z M 711.106 166.707 C 711.106 175.607 707.906 180.057 701.506 180.057 C 699.039 180.057 696.406 179.89 693.606 179.557 L 693.006 164.857 L 693.006 156.157 C 696.739 154.29 700.139 153.357 703.206 153.357 C 708.473 153.357 711.106 157.807 711.106 166.707 Z M 730.505 142.457 L 731.605 166.557 L 730.405 190.857 L 743.805 188.357 L 742.705 164.857 L 743.905 139.957 Z M 731.705 130.857 C 732.972 132.324 734.722 133.057 736.955 133.057 C 739.188 133.057 741.155 132.174 742.855 130.407 C 744.555 128.64 745.405 126.524 745.405 124.057 C 745.405 121.59 744.805 119.74 743.605 118.507 C 742.405 117.274 740.672 116.657 738.405 116.657 C 736.138 116.657 734.138 117.54 732.405 119.307 C 730.672 121.074 729.805 122.515 729.805 123.632 C 729.805 124.749 729.805 125.307 729.805 125.307 C 729.805 127.54 730.438 129.39 731.705 130.857 Z M 762.294 169.357 L 787.294 167.057 L 789.294 164.957 C 790.294 161.224 790.794 157.89 790.794 154.957 C 790.794 150.024 789.444 146.19 786.744 143.457 C 784.044 140.724 780.261 139.357 775.394 139.357 C 769.061 139.357 763.527 142.424 758.794 148.557 C 754.061 154.69 751.694 161.824 751.694 169.957 C 751.694 176.424 753.394 181.707 756.794 185.807 C 760.194 189.907 764.594 191.957 769.994 191.957 C 772.527 191.957 774.977 191.54 777.344 190.707 C 779.711 189.874 781.611 188.94 783.044 187.907 C 784.477 186.874 785.894 185.624 787.294 184.157 C 788.694 182.69 789.727 181.39 790.394 180.257 L 785.794 174.657 L 783.994 176.157 C 782.794 177.157 781.127 178.157 778.994 179.157 C 776.861 180.157 774.827 180.657 772.894 180.657 C 766.961 180.657 763.427 176.89 762.294 169.357 Z M 779.294 156.357 C 779.294 157.357 779.194 158.624 778.994 160.157 L 761.994 162.257 C 762.327 158.59 763.494 155.574 765.494 153.207 C 767.494 150.84 769.961 149.657 772.894 149.657 C 777.161 149.657 779.294 151.89 779.294 156.357 Z M 871.893 189.157 L 863.593 164.057 L 850.693 121.257 L 832.793 122.557 L 819.393 165.557 L 810.593 189.857 L 823.393 190.857 L 828.693 171.857 L 852.593 171.857 L 857.493 191.357 Z M 849.593 161.257 L 831.793 161.257 L 840.393 134.257 L 841.693 134.257 Z M 892.493 162.057 L 888.193 140.057 L 874.593 142.557 L 881.793 166.857 L 887.693 191.157 L 904.793 189.657 L 911.093 166.257 L 918.593 141.457 L 906.193 139.957 L 900.793 164.657 L 897.493 178.357 L 896.193 178.357 Z M 932.591 169.357 L 957.591 167.057 L 959.591 164.957 C 960.591 161.224 961.091 157.89 961.091 154.957 C 961.091 150.024 959.741 146.19 957.041 143.457 C 954.341 140.724 950.558 139.357 945.691 139.357 C 939.358 139.357 933.824 142.424 929.091 148.557 C 924.358 154.69 921.991 161.824 921.991 169.957 C 921.991 176.424 923.691 181.707 927.091 185.807 C 930.491 189.907 934.891 191.957 940.291 191.957 C 942.824 191.957 945.274 191.54 947.641 190.707 C 950.008 189.874 951.908 188.94 953.341 187.907 C 954.774 186.874 956.191 185.624 957.591 184.157 C 958.991 182.69 960.024 181.39 960.691 180.257 L 956.091 174.657 L 954.291 176.157 C 953.091 177.157 951.424 178.157 949.291 179.157 C 947.158 180.157 945.124 180.657 943.191 180.657 C 937.258 180.657 933.724 176.89 932.591 169.357 Z M 949.591 156.357 C 949.591 157.357 949.491 158.624 949.291 160.157 L 932.291 162.257 C 932.624 158.59 933.791 155.574 935.791 153.207 C 937.791 150.84 940.258 149.657 943.191 149.657 C 947.458 149.657 949.591 151.89 949.591 156.357 Z M 968.742 189.407 C 969.909 190.774 971.542 191.457 973.642 191.457 C 975.742 191.457 977.575 190.624 979.142 188.957 C 980.709 187.29 981.492 185.19 981.492 182.657 C 981.492 178.257 979.325 176.057 974.992 176.057 C 972.792 176.057 970.909 176.874 969.342 178.507 C 967.775 180.14 966.992 181.49 966.992 182.557 C 966.992 183.624 966.992 184.157 966.992 184.157 C 966.992 186.29 967.575 188.04 968.742 189.407 Z" style="fill: url(&quot;#color-5&quot;);">
      <title>Land</title>
    </path>
    <path d="M -119.007 961.758 C -119.007 961.758 276.997 863.241 475.212 814.85 C 570.766 791.522 571.954 791.823 623.064 853.931 C 738.553 994.271 972.49 1272.5 972.49 1272.5 L -192.4 1277.76 L -119.007 961.758 Z" style="stroke-width: 16px; fill: url(&quot;#color-5&quot;); visibility: hidden;">
      <title>BL</title>
    </path>
    <path d="M 913.683 779.813 C 855.104 721.257 854.383 721.234 934.766 701.178 C 1032.212 676.865 1227.229 628.745 1227.229 628.745 L 1399.817 778.686 L 1572.405 928.627 L 1381.598 992.49 L 1190.791 1056.353 C 1190.791 1056.353 1005.975 872.07 913.683 779.813 Z" style="stroke-width: 16px; fill: url(&quot;#color-5&quot;); visibility: hidden;">
      <title>BR</title>
    </path>
    <path d="M -239.607 423.874 L -312.274 254.174 L -384.94 84.475 L -293.532 82.722 L -202.124 80.97 L -110.716 79.217 L -19.308 77.465 C -19.308 77.465 64.04 178.233 157.73 291.422 C 156.668 308.135 157.849 325.118 157.849 339.705 C 157.849 441.262 260.604 597.193 259.405 593.589 C 258.872 594.047 290.805 546.187 318.996 486.147 C 358.693 534.039 390.473 572.329 405.607 590.452 C 447.456 640.567 447.325 641.603 361.788 662.328 C 300.6 677.153 -94.273 763.272 -94.273 763.272 Z" style="stroke-width: 16px; fill: url(&quot;#color-5&quot;); visibility: hidden;">
      <title>TLCut</title>
    </path>
    <path d="M 791.68 565.229 C 715.493 582.485 715.009 584.289 666.658 535.553 C 479.892 347.299 103.187 -26.043 103.187 -26.043 L 1108.792 -22.639 L 1511.382 402.953 C 1511.382 402.953 1031.528 510.904 791.68 565.229 Z" style="stroke-width: 16px; fill: url(&quot;#color-5&quot;); visibility: hidden;">
      <title>TR</title>
    </path>
    <path style="fill: none; stroke-width: 16px; stroke: url(&quot;#color-4&quot;);" d="M 324.209 339.705 C 324.209 375.49 295.195 404.505 259.405 404.505 C 223.616 404.505 194.599 375.49 194.599 339.705 C 194.599 303.912 223.616 274.898 259.405 274.898 C 295.195 274.898 324.209 303.912 324.209 339.705 Z">
      <title>LocationCircle</title>
    </path>
    <path d="M 55.009 5.257 L 123.392 5.257 C 211.539 92.682 503.66 382.614 660.979 541.187 C 685.222 565.622 699.277 579.013 716.996 582.948 C 734.426 586.818 755.435 581.64 793.447 573.031 C 859.457 558.08 943.647 539.067 1031.01 519.36 L 1031.01 669.022 C 994.92 677.966 960.064 686.621 932.829 693.416 C 912.731 698.431 897.303 702.293 886.599 706.169 C 875.395 710.226 866.313 716.545 864.369 724.053 C 862.437 731.518 867.172 741.495 874.788 750.732 C 882.086 759.585 893.388 770.838 908.027 785.471 C 941.321 818.753 1031.01 908.27 1031.01 908.27 C 1030.298 986.695 1042.941 1029.063 974.145 1029.942 L 779.109 1029.26 C 724.716 964.125 669.705 898.019 629.241 848.848 C 576.025 785.404 570.8 783.759 473.315 807.078 C 346.978 837.921 140.304 889.124 7.009 922.208 L 7.009 749.32 C 128.312 722.76 322.245 680.14 363.672 670.103 C 406.483 659.73 431.373 653.063 438.319 641.541 C 442.494 634.614 440.479 624.315 435.282 615.757 C 430.443 607.792 422.22 597.865 411.748 585.324 C 396.621 567.211 364.851 528.932 325.155 481.042 L 322.717 478.1 C 343.302 432.877 360.953 381.849 360.953 339.705 C 360.953 288.923 375.278 216.342 259.405 212.711 C 184.31 210.368 163.896 243.071 158.828 280.201 C 94.935 203.009 36.511 132.391 7.009 96.728 L 7.009 53.257 C 7.009 26.747 28.499 5.257 55.009 5.257 Z" style="fill: url(&quot;#color-4&quot;);">
      <title>Road</title>
    </path>
    <g style="visibility: hidden;">
      <title>guides</title>
      <line style="fill: rgb(216, 216, 216); stroke: rgb(0, 0, 0);" x1="-393.283" y1="-518.062" x2="1577.389" y2="1439.411"/>
      <line style="fill: rgb(216, 216, 216); stroke: rgb(0, 0, 0);" x1="-508.817" y1="-513.11" x2="1126.808" y2="1460.867"/>
      <line style="fill: rgb(216, 216, 216); stroke: rgb(0, 0, 0);" x1="-447.749" y1="1041.644" x2="1777.096" y2="493.684"/>
      <line style="fill: rgb(216, 216, 216); stroke: rgb(0, 0, 0);" x1="-518.719" y1="858.441" x2="1881.078" y2="322.034"/>
      <line style="fill: rgb(216, 216, 216); stroke: rgb(0, 0, 0);" x1="-337.16" y1="-518.06" x2="1702.861" y2="1437.719"/>
      <line style="fill: rgb(216, 216, 216); stroke: rgb(0, 0, 0);" x1="-337.16" y1="-518.06" x2="1702.861" y2="1437.719"/>
      <line style="fill: rgb(216, 216, 216); stroke: rgb(0, 0, 0);" x1="-514.23" y1="-502.2" x2="954.913" y2="1453.58"/>
      <line style="fill: rgb(216, 216, 216); stroke: rgb(0, 0, 0);" x1="-425.025" y1="1125.788" x2="1953.621" y2="509.982"/>
      <line style="fill: rgb(216, 216, 216); stroke: rgb(0, 0, 0);" x1="-580.96" y1="795.419" x2="1871.69" y2="282.688"/>
    </g>
  </g>
  <g style="visibility: hidden;" transform="matrix(1, 0, 0, 1, -48.2789, 162.706)">
    <title>COARSE_LOCATION</title>
    <circle style="fill: none; stroke-width: 11px; stroke: url(&quot;#color-5&quot;);" cx="554.344" cy="228.406" r="65.801"/>
    <path d="M 96.279 -162.71 L 1024.279 -162.71 C 1050.789 -162.71 1072.279 -141.22 1072.279 -114.71 L 1072.279 813.29 C 1072.279 817.521 1071.016 821.624 1069.988 825.533 C 958.243 638.135 801.388 480.741 615.053 368.932 L 614.601 368.661 C 635.596 323.286 654.004 271.386 654.004 228.749 C 654.004 178.916 668.064 107.679 554.337 104.12 C 440.614 100.568 454.67 178.916 454.67 228.749 C 454.67 248.13 458.483 269.528 464.617 291.401 C 335.599 235.596 195.099 199.638 48.279 187.946 L 48.279 -114.71 C 48.279 -141.22 69.769 -162.71 96.279 -162.71 Z M 617.938 228.749 C 617.938 263.875 589.462 292.35 554.337 292.35 C 519.211 292.35 490.736 263.875 490.736 228.749 C 490.736 193.624 519.211 165.148 554.337 165.148 C 589.462 165.148 617.938 193.624 617.938 228.749 Z" style="fill: url(&quot;#color-4&quot;);"/>
    <path d="M 1024.279 861.29 L 991.351 861.29 C 999.785 833.191 1007.082 804.592 1013.182 775.497 C 1010.375 771.345 1007.544 767.21 1004.689 763.092 L 999.591 762.087 C 993 795.839 984.78 828.909 975.025 861.29 L 696.084 861.29 C 655.917 819.498 614.548 779.758 572.091 742.164 C 570.063 745.701 568.015 749.227 565.948 752.741 C 604.741 787.161 642.593 823.361 679.437 861.29 L 493.539 861.29 C 519.711 826.385 543.923 790.194 565.948 752.741 C 562.141 749.363 558.324 746.002 554.499 742.658 C 530.562 783.762 503.934 823.314 474.919 861.29 L 132.311 861.29 C 104.822 827.915 76.816 795.417 48.279 763.861 L 48.279 722.069 C 116.772 658.467 175.691 586.779 221.047 507.604 C 216.731 505.22 212.408 502.857 208.079 500.512 C 165.908 574.451 111.524 641.637 48.279 701.69 L 48.279 424.248 C 102.463 446.735 155.773 472.193 208.079 500.512 C 210.031 497.09 211.956 493.653 213.856 490.202 C 159.703 460.929 104.459 434.684 48.279 411.589 L 48.279 211.896 C 133.616 218.654 215.858 233.638 295.04 256.134 C 295.718 251.934 296.36 247.72 296.965 243.491 L 312.797 245.801 C 312.059 250.758 311.273 255.696 310.437 260.614 C 361.389 275.793 411.063 294.094 459.468 315.325 C 473.735 357.527 493.991 398.655 512.042 431.322 C 521.103 447.722 529.331 461.438 535.154 470.749 C 538.091 475.444 540.509 479.166 542.124 481.565 C 542.96 482.806 543.708 483.879 544.194 484.534 C 544.504 484.952 545.075 485.672 545.499 486.124 C 546.055 486.716 549.593 489.464 552.774 489.882 C 555.324 490.217 561.535 488.117 563.595 485.625 C 564.627 484.376 565.471 482.216 565.941 480.456 C 565.719 481.582 565.445 482.458 565.322 482.736 C 565.141 483.15 564.851 483.691 564.785 483.806 C 564.751 483.865 564.712 483.929 564.778 483.824 C 564.94 483.562 565.206 483.142 565.6 482.521 C 566.392 481.273 567.602 479.37 569.152 476.9 C 572.235 471.989 576.726 464.732 582.049 455.753 C 592.646 437.874 602.878 419.654 614.611 396.255 C 634.544 408.405 654.114 421.06 673.303 434.205 C 673.779 431.89 674.248 429.571 674.709 427.248 L 690.397 430.392 C 689.471 434.97 688.514 439.536 687.527 444.088 C 811.343 531.331 918.768 639.178 1004.689 763.092 L 1015.29 765.183 C 1014.604 768.628 1013.901 772.066 1013.182 775.497 C 1028.971 798.854 1044.004 822.767 1058.246 847.206 C 1049.557 855.907 1037.547 861.29 1024.279 861.29 Z M 96.279 861.29 C 69.769 861.29 48.279 839.8 48.279 813.29 L 48.279 781.565 C 71.492 807.518 94.355 834.104 116.878 861.29 L 96.279 861.29 Z M 226.851 497.296 C 224.942 500.746 223.007 504.182 221.047 507.604 C 313.054 558.413 401.902 618.108 486.884 686.094 C 509.718 704.361 532.26 723.219 554.499 742.658 C 556.55 739.136 558.581 735.603 560.592 732.058 C 538.798 713.047 516.722 694.598 494.38 676.724 C 408.994 608.415 319.552 548.403 226.851 497.296 Z M 310.437 260.614 C 305.318 259.089 300.185 257.596 295.04 256.134 C 281.473 340.19 253.41 418.326 213.856 490.202 C 218.195 492.547 222.526 494.912 226.851 497.296 C 267.159 424.464 296.031 345.418 310.437 260.614 Z M 687.527 444.088 C 682.809 440.764 678.068 437.469 673.303 434.205 C 651.329 540.946 612.645 640.315 560.592 732.058 C 564.434 735.409 568.267 738.778 572.091 742.164 C 624.831 650.191 664.416 550.716 687.527 444.088 Z" style="fill: url(&quot;#color-5&quot;);">
      <title>Earth</title>
    </path>
  </g>
</svg>